<?xml version="1.0" encoding="UTF-8" standalone="no"?>
<!-- Created with Inkscape (http://www.inkscape.org/) -->

<svg
   xmlns:dc="http://purl.org/dc/elements/1.1/"
   xmlns:cc="http://creativecommons.org/ns#"
   xmlns:rdf="http://www.w3.org/1999/02/22-rdf-syntax-ns#"
   xmlns:svg="http://www.w3.org/2000/svg"
   xmlns="http://www.w3.org/2000/svg"
   xmlns:xlink="http://www.w3.org/1999/xlink"
   xmlns:sodipodi="http://sodipodi.sourceforge.net/DTD/sodipodi-0.dtd"
   xmlns:inkscape="http://www.inkscape.org/namespaces/inkscape"
   width="744.09448819"
   height="1052.3622047"
   id="svg2"
   version="1.1"
   inkscape:version="0.48.4 r9939"
   sodipodi:docname="annie.svg">
  <defs
     id="defs4" />
  <sodipodi:namedview
     id="base"
     pagecolor="#ffffff"
     bordercolor="#666666"
     borderopacity="1.0"
     inkscape:pageopacity="0.0"
     inkscape:pageshadow="2"
     inkscape:zoom="1.3532153"
     inkscape:cx="523.17779"
     inkscape:cy="426.90462"
     inkscape:document-units="px"
     inkscape:current-layer="layer1"
     showgrid="false"
     inkscape:window-width="1918"
     inkscape:window-height="1078"
     inkscape:window-x="0"
     inkscape:window-y="0"
     inkscape:window-maximized="0"
     showguides="true"
     inkscape:guide-bbox="true" />
  <metadata
     id="metadata7">
    <rdf:RDF>
      <cc:Work
         rdf:about="">
        <dc:format>image/svg+xml</dc:format>
        <dc:type
           rdf:resource="http://purl.org/dc/dcmitype/StillImage" />
        <dc:title></dc:title>
      </cc:Work>
    </rdf:RDF>
  </metadata>
  <g
     inkscape:label="Layer 1"
     inkscape:groupmode="layer"
     id="layer1">
    <image
       y="3290.6045"
       x="-3257.1484"
       id="image3044"
       xlink:href="file:///home/john/Downloads/image.jpeg"
       height="3264"
       width="2448"
       transform="matrix(0,-1,1,0,0,0)" />
    <g
       id="g3844"
       inkscape:export-filename="/home/john/TestEngine/girlface.png"
       inkscape:export-xdpi="180"
       inkscape:export-ydpi="180"
       transform="matrix(-0.1,0,0,0.1,364.64712,729.97053)">
      <path
         sodipodi:nodetypes="ccccscccccc"
         inkscape:connector-curvature="0"
         id="path3047"
         d="m 528.57143,-119.06639 c -34.59735,101.760436 -30.6098,182.084811 -17.14286,257.14286 77.94249,134.44085 -46.13602,347.97561 0.34664,431.14141 44.14234,14.06429 160.29868,-16.22892 129.23494,111.84844 34.78544,-2.74494 33.05838,49.65268 25.34123,69.15264 -7.80412,19.71971 -1.3264,31.97899 6.54781,49.28608 163.27061,34.0074 93.00045,240.56796 138.32633,338.91806 317.81898,3.4795 522.97588,-286.94278 648.36838,-487.44743 147.0165,-145.82519 125.4704,-353.03854 71.8347,-550.04206 -141.5299,-172.269861 -270.7287,-360.46754 -537.14289,-371.42857 -174.68206,9.71977 -350.84382,12.14358 -465.71428,151.42857 z"
         style="fill:#ffffff;fill-opacity:1;stroke:#000000;stroke-width:10;stroke-linecap:butt;stroke-linejoin:miter;stroke-miterlimit:4;stroke-opacity:1;stroke-dasharray:none" />
      <path
         sodipodi:nodetypes="cccc"
         inkscape:connector-curvature="0"
         id="path3817"
         d="M 1041.4672,-8.2979896 C 869.28085,-5.0515803 715.07415,109.38571 606.09153,112.92032 c 28.62645,16.50134 17.54416,46.21158 17.17259,56.56854 37.095,-36.59003 249.02538,-139.692171 418.20308,-177.7868496 z"
         style="fill:#000000;fill-opacity:1;stroke:#000000;stroke-width:1px;stroke-linecap:butt;stroke-linejoin:miter;stroke-opacity:1" />
      <path
         sodipodi:nodetypes="cc"
         inkscape:connector-curvature="0"
         id="path3819"
         d="M 711.14739,151.30611 C 780.43899,81.626857 880.21251,68.270248 963.68553,44.229942"
         style="fill:#ffffff;fill-opacity:1;stroke:#000000;stroke-width:10;stroke-linecap:butt;stroke-linejoin:miter;stroke-miterlimit:4;stroke-opacity:1;stroke-dasharray:none" />
      <path
         sodipodi:nodetypes="ccc"
         inkscape:connector-curvature="0"
         id="path3821"
         d="M 990.95965,69.483756 C 910.1421,100.65524 783.60359,108.57474 731.35044,181.61069 c 1.41718,-15.4187 2.2656,-31.40616 1.01016,-49.49748"
         style="fill:#ffffff;fill-opacity:1;stroke:#000000;stroke-width:10;stroke-linecap:butt;stroke-linejoin:miter;stroke-miterlimit:4;stroke-opacity:1;stroke-dasharray:none" />
      <path
         sodipodi:nodetypes="ccc"
         inkscape:connector-curvature="0"
         id="path3823"
         d="m 984.89873,79.585281 c 6.17875,58.072239 -28.30507,99.514559 -74.75129,120.208149 -67.71883,23.2431 -132.97729,47.00418 -150.51273,80.81221"
         style="fill:#ffffff;fill-opacity:1;stroke:#000000;stroke-width:10;stroke-linecap:butt;stroke-linejoin:miter;stroke-miterlimit:4;stroke-opacity:1;stroke-dasharray:none" />
      <path
         sodipodi:nodetypes="cccc"
         inkscape:connector-curvature="0"
         id="path3825"
         d="m 814.18295,123.02184 c 16.25555,33.73266 16.75294,71.15231 11.11168,109.09648 -29.53619,-9.3536 -54.47679,-27.32392 -62.62946,-76.7716 1.9662,-6.71992 9.63771,-14.96126 51.51778,-32.32488 z"
         style="fill:#ffffff;fill-opacity:1;stroke:#000000;stroke-width:10;stroke-linecap:butt;stroke-linejoin:miter;stroke-miterlimit:4;stroke-opacity:1;stroke-dasharray:none" />
      <path
         sodipodi:nodetypes="cccccccc"
         inkscape:connector-curvature="0"
         id="path3827"
         d="m 814.18295,1133.1744 c 134.17209,38.9211 295.78655,-138.73669 393.95945,-10.1015 38.4813,113.8105 78.8331,235.7022 135.3604,339.4112 78.1894,137.4425 250.5415,118.2646 270.721,56.5686 C 1767.549,1380.1588 1760.4673,1135.805 1895.0462,987.71242 1822.316,879.28773 1757.8452,754.34433 1717.2593,581.6311 1657.804,455.03451 1613.4046,499.49208 1543.5131,519.00164 1458.4485,691.66962 1175.2558,1132.9506 814.18295,1133.1744 z"
         style="fill:#ffffff;fill-opacity:1;stroke:#000000;stroke-width:10;stroke-linecap:butt;stroke-linejoin:miter;stroke-miterlimit:4;stroke-opacity:1;stroke-dasharray:none" />
      <path
         sodipodi:nodetypes="cccscc"
         inkscape:connector-curvature="0"
         id="path3829"
         d="m 637.14286,1866.6479 c 86.19603,-119.7217 99.61587,-273.9163 317.14285,-331.4286 121.07479,22.4554 208.84679,-223.4848 345.91739,-162.8571 23.5577,99.3124 136.0443,259.4229 307.0584,156.5662 136.2641,-81.9563 156.1843,-441.382 289.8814,-536.56622 160,-138.91228 354.2857,-68.6227 480,-17.14285"
         style="fill:#ffffff;fill-opacity:1;stroke:#000000;stroke-width:10;stroke-linecap:butt;stroke-linejoin:miter;stroke-miterlimit:4;stroke-opacity:1;stroke-dasharray:none" />
      <path
         sodipodi:nodetypes="cccccssscccc"
         inkscape:connector-curvature="0"
         id="path3831"
         d="m 1180.3526,-622.28125 c -221.88571,-24.15318 -480.21031,30.22292 -671.38831,150.35714 -61.87725,38.11151 -135.89127,90.98627 -135.21429,172.70536 45.39595,107.48184 4.13089,222.155454 22.28125,294.96875 28.90386,-52.685041 76.12467,-93.463056 137.34375,-119.21875 83.16491,-118.72893 339.60588,-191.2361 598.35,-119.35233 125.1799,34.77723 305.5666,185.484619 397.6105,359.20816 52.1496,98.42713 39.061,204.8164 24.7794,399.61916 -2.8683,39.12405 81.1216,-138.98986 173.2601,79.77501 52.2668,-298.53578 315.3463,-621.513732 113.125,-919.25 -36.6214,-76.02837 -41.2456,-160.76642 -131.3125,-222.21875 -182.2084,-40.41625 -307.7925,-75.04709 -528.8349,-76.59375 z"
         style="fill:#ffffff;fill-opacity:1;stroke:#000000;stroke-width:10;stroke-linecap:butt;stroke-linejoin:miter;stroke-miterlimit:4;stroke-opacity:1;stroke-dasharray:none" />
      <path
         sodipodi:nodetypes="ccccccc"
         inkscape:connector-curvature="0"
         id="path3833"
         d="m 1845.7143,-310.49496 c 77.455,-41.22425 352.9127,-174.04401 477.1429,182.85715 -87.4146,432.81257 -93.0703,738.21012 -8.5715,1065.71428 L 2048.5714,906.6479 c -116.1857,-263.81156 142.8702,-671.39193 -31.4285,-885.714289 -69.786,-21.28591136 -105.8401,22.773301 -111.4286,65.714286 7.0615,-132.380952 41.2314,-264.761907 -60,-397.142857 z"
         style="fill:#ffffff;fill-opacity:1;stroke:#000000;stroke-width:10;stroke-linecap:butt;stroke-linejoin:miter;stroke-miterlimit:4;stroke-opacity:1;stroke-dasharray:none" />
      <path
         sodipodi:nodetypes="ccccc"
         inkscape:connector-curvature="0"
         id="path3835"
         d="m 672.7616,750.32657 c 2.17658,-19.52962 1.43055,-65.18106 -24.08123,-72.58885 14.88875,-17.46235 171.82482,-33.85274 248.33509,3.89848 -70.76547,49.44398 -98.82365,119.25017 -220.21325,120.20815 -12.78531,-17.17259 -15.48331,-34.34519 -4.04061,-51.51778 z"
         style="fill:#ffffff;fill-opacity:1;stroke:#000000;stroke-width:10;stroke-linecap:butt;stroke-linejoin:miter;stroke-miterlimit:4;stroke-opacity:1;stroke-dasharray:none" />
      <path
         sodipodi:nodetypes="cc"
         inkscape:connector-curvature="0"
         id="path3837"
         d="M 673.77175,752.34688 C 730.72732,711.31765 819.7672,702.37273 896.00531,680.62605"
         style="fill:#ffffff;fill-opacity:1;stroke:#000000;stroke-width:10;stroke-linecap:butt;stroke-linejoin:miter;stroke-miterlimit:4;stroke-opacity:1;stroke-dasharray:none" />
      <path
         sodipodi:nodetypes="cccc"
         inkscape:connector-curvature="0"
         id="path3839"
         d="m 788.57143,147.36218 c -0.7582,15.02774 3.41049,21.57565 10.35715,32.5 l 11.78571,4.64286 c -5.87717,-18.64673 -10.79718,-41.28158 -22.14286,-37.14286 z"
         style="fill:#000000;fill-opacity:1;stroke:#000000;stroke-width:1px;stroke-linecap:butt;stroke-linejoin:miter;stroke-opacity:1" />
      <path
         sodipodi:nodetypes="cccccccc"
         inkscape:connector-curvature="0"
         id="path3047-0"
         d="m -1959.6951,-3092.0495 c -34.5974,101.7604 -30.6098,182.0848 -17.1429,257.1428 77.9425,134.4409 -3.636,352.9756 0.347,431.1414 120.1855,15.5375 56.1615,280.9202 212.6054,394.8362 241.4267,21.5435 449.8205,-62.5737 675.213,-213.0784 78.9847,-207.6057 144.87647,-443.3999 91.8347,-650.042 -89.91,-242.4731 -70.7287,-360.4676 -337.1429,-371.4286 -174.6821,9.7198 -510.8438,12.1436 -625.7143,151.4286 z"
         style="fill:#ffffff;fill-opacity:1;stroke:#000000;stroke-width:10;stroke-linecap:butt;stroke-linejoin:miter;stroke-miterlimit:4;stroke-opacity:1;stroke-dasharray:none" />
      <g
         id="g4177"
         transform="translate(-3486.0363,-707.10676)">
        <path
           style="fill:#000000;fill-opacity:1;stroke:#000000;stroke-width:1px;stroke-linecap:butt;stroke-linejoin:miter;stroke-opacity:1"
           d="m 1997.3972,-2317.9474 c -172.1863,3.2464 -326.3931,117.6837 -435.3757,121.2183 28.6265,16.5013 17.5442,46.2116 17.1726,56.5686 37.095,-36.5901 249.0254,-139.6922 418.2031,-177.7869 z"
           id="path3817-5"
           inkscape:connector-curvature="0"
           sodipodi:nodetypes="cccc" />
        <path
           style="fill:#ffffff;fill-opacity:1;stroke:#000000;stroke-width:10;stroke-linecap:butt;stroke-linejoin:miter;stroke-miterlimit:4;stroke-opacity:1;stroke-dasharray:none"
           d="m 1667.0774,-2158.3433 c 69.2916,-69.6793 169.0651,-83.0359 252.5381,-107.0762"
           id="path3819-3"
           inkscape:connector-curvature="0"
           sodipodi:nodetypes="cc" />
        <path
           style="fill:#ffffff;fill-opacity:1;stroke:#000000;stroke-width:10;stroke-linecap:butt;stroke-linejoin:miter;stroke-miterlimit:4;stroke-opacity:1;stroke-dasharray:none"
           d="m 1946.8897,-2240.1657 c -80.8176,31.1715 -207.3561,39.091 -259.6093,112.127 1.4172,-15.4187 2.2656,-31.4062 1.0102,-49.4975"
           id="path3821-7"
           inkscape:connector-curvature="0"
           sodipodi:nodetypes="ccc" />
        <path
           style="fill:#ffffff;fill-opacity:1;stroke:#000000;stroke-width:10;stroke-linecap:butt;stroke-linejoin:miter;stroke-miterlimit:4;stroke-opacity:1;stroke-dasharray:none"
           d="m 1940.8287,-2230.0641 c 6.1788,58.0722 -28.305,99.5145 -74.7513,120.2081 -67.7188,23.2431 -132.9773,47.0042 -150.5127,80.8122"
           id="path3823-6"
           inkscape:connector-curvature="0"
           sodipodi:nodetypes="ccc" />
        <path
           style="fill:#ffffff;fill-opacity:1;stroke:#000000;stroke-width:10;stroke-linecap:butt;stroke-linejoin:miter;stroke-miterlimit:4;stroke-opacity:1;stroke-dasharray:none"
           d="m 1770.1129,-2186.6276 c 16.2556,33.7327 16.753,71.1523 11.1117,109.0965 -29.5362,-9.3536 -54.4768,-27.3239 -62.6294,-76.7716 1.9662,-6.7199 9.6377,-14.9612 51.5177,-32.3249 z"
           id="path3825-9"
           inkscape:connector-curvature="0"
           sodipodi:nodetypes="cccc" />
        <path
           style="fill:#000000;fill-opacity:1;stroke:#000000;stroke-width:1px;stroke-linecap:butt;stroke-linejoin:miter;stroke-opacity:1"
           d="m 1744.5014,-2162.2872 c -0.7582,15.0277 3.4105,21.5756 10.3572,32.5 l 11.7857,4.6428 c -5.8772,-18.6467 -10.7972,-41.2815 -22.1429,-37.1428 z"
           id="path3839-2"
           inkscape:connector-curvature="0"
           sodipodi:nodetypes="cccc" />
      </g>
      <path
         style="fill:none;stroke:#000000;stroke-width:10px;stroke-linecap:butt;stroke-linejoin:miter;stroke-opacity:1"
         d="m -1889.5654,-2257.454 c 21.7175,-31.9035 160.3996,-10.5156 194.5671,9.2587"
         id="path4185"
         inkscape:connector-curvature="0"
         sodipodi:nodetypes="cc" />
      <path
         style="fill:#000000;fill-opacity:1;stroke:#000000;stroke-width:1.24637198px;stroke-linecap:butt;stroke-linejoin:miter;stroke-opacity:1"
         d="m -1831.2112,-2422.8526 c -21.5541,-11.7984 -36.5805,-1.603 -77.8609,-1.0723 17.5293,-9.9316 -1.8318,-25.7937 48.0186,-24.2058 32.8837,-0.2457 35.2871,10.3112 29.8423,25.2781 z"
         id="path4187"
         inkscape:connector-curvature="0"
         sodipodi:nodetypes="cccc" />
      <path
         style="fill:none;stroke:#000000;stroke-width:10px;stroke-linecap:butt;stroke-linejoin:miter;stroke-opacity:1"
         d="m -1863.2131,-2179.0856 c 46.8173,3.1223 54.1042,8.1895 87.3687,-7.1849"
         id="path4189"
         inkscape:connector-curvature="0"
         sodipodi:nodetypes="cc" />
      <path
         sodipodi:nodetypes="cccccccc"
         inkscape:connector-curvature="0"
         id="path3827-4"
         d="m -3409.0828,-1491.9928 c 134.1721,38.9211 295.7866,-138.7367 393.9595,-10.1015 38.4813,113.8105 78.8331,235.7022 135.3604,339.4112 78.1894,137.4425 250.5415,118.2646 270.721,56.5686 153.3252,-138.8939 146.2435,-383.2477 280.8224,-531.3403 -72.7302,-108.4247 -137.201,-233.368 -177.7869,-406.0813 -59.4553,-126.5966 -103.8547,-82.139 -173.7462,-62.6294 -85.0646,172.6679 -368.2573,613.9489 -729.3302,614.1727 z"
         style="fill:#ffffff;fill-opacity:1;stroke:#000000;stroke-width:10;stroke-linecap:butt;stroke-linejoin:miter;stroke-miterlimit:4;stroke-opacity:1;stroke-dasharray:none" />
      <path
         style="fill:#000000;fill-opacity:1;stroke:#000000;stroke-width:0.83153546px;stroke-linecap:butt;stroke-linejoin:miter;stroke-opacity:1"
         d="m -1744.8817,576.22352 c 17.6708,-0.0699 27.5758,0.45469 58.5804,2.34741 -3.8908,-3.34408 2.6354,-15.13919 -34.9146,-16.11063 -24.7069,-1.40331 -27.0285,4.7296 -23.6658,13.76322 z"
         id="path4187-9"
         inkscape:connector-curvature="0"
         sodipodi:nodetypes="cccc" />
    </g>
    <rect
       style="fill:none;fill-opacity:1;stroke:#000000;stroke-width:1;stroke-miterlimit:4;stroke-opacity:1;stroke-dasharray:none"
       id="rect3141"
       width="205.06096"
       height="261.62952"
       x="127.27922"
       y="663.45349" />
    <rect
       y="663.45349"
       x="382.10767"
       height="261.62952"
       width="205.06096"
       id="rect3911"
       style="fill:none;stroke:#000000;stroke-width:1;stroke-miterlimit:4;stroke-opacity:1;stroke-dasharray:none" />
    <path
       style="fill:none;stroke:#000000;stroke-width:0.986803px;stroke-linecap:butt;stroke-linejoin:miter;stroke-opacity:1"
       d="m 562.86358,744.76612 c -11.1652,-8.22218 -19.38771,-10.77801 -24.09233,5.65862 -1.66082,10.58252 5.51038,26.19864 6.7534,37.00039 -2.65565,1.32127 -9.61905,2.83411 -14.13011,1.41466"
       id="path4036"
       inkscape:connector-curvature="0"
       sodipodi:nodetypes="cccc" />
    <path
       style="fill:none;stroke:#000000;stroke-width:0.97508377px;stroke-linecap:butt;stroke-linejoin:miter;stroke-opacity:1"
       d="m 561.4791,717.52924 c -30.58175,-8.74344 -75.07476,-30.30462 -95.91765,-9.1935 8.10714,44.33558 -13.0989,61.13728 -11.88921,90.29877 13.04233,26.25576 52.88689,43.92815 90.55962,42.41072 2.24357,-19.03354 16.25352,-33.78933 13.40563,-54.58339 -3.53935,-25.84283 16.93093,-42.71646 3.84161,-68.9326 z"
       id="path4034"
       inkscape:connector-curvature="0"
       sodipodi:nodetypes="ccccsc" />
    <path
       style="fill:none;stroke:#000000;stroke-width:1px;stroke-linecap:butt;stroke-linejoin:miter;stroke-opacity:1"
       d="m 514.41463,736.44029 c -14.68,-6.74672 -19.16966,-8.28089 -32.09588,-6.20777 -1.21414,6.04478 1.22591,13.08145 5.41078,15.01388 6.49512,2.99922 14.60685,1.18595 24.95597,4.13578 1.29973,-4.25728 3.12888,-5.98513 1.72913,-12.94189 z"
       id="path4040"
       inkscape:connector-curvature="0"
       sodipodi:nodetypes="ccscc" />
    <path
       style="fill:none;stroke:#000000;stroke-width:1px;stroke-linecap:butt;stroke-linejoin:miter;stroke-opacity:1"
       d="m 446.99999,797.86219 c 2.52909,18.69841 -0.73969,62.99039 -18.02081,78.41421 8.98294,37.04269 35.33657,29.41788 56.52081,35.08579 17.5414,-7.7293 39.96675,-13.01663 36,-31.5 -2.1265,-9.11265 -5.41338,-36.70052 5.5,-39.5"
       id="path4044"
       inkscape:connector-curvature="0"
       sodipodi:nodetypes="ccccc" />
    <path
       style="fill:none;stroke:#000000;stroke-width:0.97508377px;stroke-linecap:butt;stroke-linejoin:miter;stroke-opacity:1"
       d="m 453.35363,798.86455 c -22.5622,-28.79071 -14.50138,-48.03459 -14.2601,-77.50938 1.30225,-17.93314 6.84776,-32.51831 23.2915,-38.50466 38.62826,-9.26618 76.91372,3.84163 110.27809,20.50248 0.4981,8.96855 4.24946,13.38618 2.37669,18.50224 l -13.30942,-4.50055"
       id="path4046"
       inkscape:connector-curvature="0"
       sodipodi:nodetypes="cccccc" />
    <path
       style="fill:#000000;fill-opacity:1;stroke:#000000;stroke-width:0.78426439px;stroke-linecap:butt;stroke-linejoin:miter;stroke-opacity:1"
       d="m 516.1729,727.71917 1.1258,6.23256 c -10.95259,-10.68043 -26.34325,-7.77978 -38.15103,-11.79461 12.34158,1.85381 19.02845,-2.70734 37.02523,5.56205 z"
       id="path4048"
       inkscape:connector-curvature="0"
       sodipodi:nodetypes="cccc" />
    <path
       sodipodi:nodetypes="cccc"
       inkscape:connector-curvature="0"
       id="path4050"
       d="m 541.9362,733.09384 -1.69825,5.4244 c 8.55391,-6.83637 17.71751,0.0254 25.74311,-0.44882 -8.01479,-1.65877 -11.46968,-7.67538 -24.04488,-4.97589 z"
       style="fill:#000000;fill-opacity:1;stroke:#000000;stroke-width:0.61684096px;stroke-linecap:butt;stroke-linejoin:miter;stroke-opacity:1" />
    <path
       style="fill:none;stroke:#000000;stroke-width:1px;stroke-linecap:butt;stroke-linejoin:miter;stroke-opacity:1"
       d="m 539.97536,755.53434 c 8.13529,1.79041 14.16472,1.85528 20.29734,2.00471 l 3.09134,-9.35113 c -9.17551,-5.79611 -15.22595,-4.60741 -22.13573,-5.3394"
       id="path4052"
       inkscape:connector-curvature="0"
       sodipodi:nodetypes="cccc" />
    <path
       style="fill:none;stroke:#000000;stroke-width:1px;stroke-linecap:butt;stroke-linejoin:miter;stroke-opacity:1"
       d="m 546.46169,810.61146 c 3.30682,-5.20562 -10.34286,-6.06899 -17.11702,-7.08557 -7.89165,-0.68423 -16.57747,-0.24182 -20.11265,2.59097"
       id="path4054"
       inkscape:connector-curvature="0"
       sodipodi:nodetypes="ccc" />
    <path
       style="fill:none;stroke:#000000;stroke-width:1px;stroke-linecap:butt;stroke-linejoin:miter;stroke-opacity:1"
       d="m 517.39596,815.68908 c 5.91086,2.72111 12.0219,2.52584 18.19311,1.45443"
       id="path4056"
       inkscape:connector-curvature="0"
       sodipodi:nodetypes="cc" />
    <path
       style="fill:none;stroke:#000000;stroke-width:0.880337px;stroke-linecap:butt;stroke-linejoin:miter;stroke-opacity:1"
       d="m 460.70165,683.31357 c -16.11656,6.46988 -38.15878,15.28852 -47.13516,40.20779 -21.21359,52.12748 9.49279,100.94342 -8.7626,149.29249 7.21121,-3.20653 15.46939,14.25556 28.29048,1.4151 -10.36236,-38.44341 -7.66597,-110.47404 4.44231,-126.15801"
       id="path4058"
       inkscape:connector-curvature="0"
       sodipodi:nodetypes="ccccc" />
    <path
       style="fill:none;stroke:#000000;stroke-width:1px;stroke-linecap:butt;stroke-linejoin:miter;stroke-opacity:1"
       d="m 494.90625,729.87401 c -1.75772,4.20028 -3.18823,8.49097 1.35641,14.43209 l 4.07319,1.59194 c 7.05921,0.12229 6.46335,-7.19429 7.05987,-13.35229"
       id="path4062"
       inkscape:connector-curvature="0"
       sodipodi:nodetypes="cccc" />
    <path
       style="fill:none;stroke:#000000;stroke-width:1px;stroke-linecap:butt;stroke-linejoin:miter;stroke-opacity:1"
       d="m 549.11343,743.56743 c -2.04102,5.7079 -2.65341,8.51044 -1.5615,12.9024 l 9.82807,0.88702 c 2.60146,-2.01076 2.60433,-6.9275 2.98923,-11.35389"
       id="path4064"
       inkscape:connector-curvature="0"
       sodipodi:nodetypes="cccc" />
    <path
       style="fill:#000000;fill-opacity:1;stroke:#000000;stroke-width:0.61944896px;stroke-linecap:butt;stroke-linejoin:miter;stroke-opacity:1"
       d="m 498.54739,735.21417 c -0.78649,4.27168 -0.36148,4.62287 1.53127,5.27493 1.7842,0.55818 2.56283,-2.89296 3.27559,-4.87904 -0.41078,-0.39567 -3.83691,-1.84941 -4.80687,-0.39582 z"
       id="path4066"
       inkscape:connector-curvature="0"
       sodipodi:nodetypes="cccc" />
    <path
       sodipodi:nodetypes="cccc"
       inkscape:connector-curvature="0"
       id="path4068"
       d="m 551.01956,748.65593 c 0.19316,4.33919 0.68619,4.58592 2.67697,4.7962 1.86397,0.14316 1.84755,-3.3947 2.09598,-5.49013 -0.48916,-0.2933 -4.15427,-0.9403 -4.77295,0.69393 z"
       style="fill:#000000;fill-opacity:1;stroke:#000000;stroke-width:0.61944896px;stroke-linecap:butt;stroke-linejoin:miter;stroke-opacity:1" />
    <rect
       style="fill:none;stroke:#000000;stroke-width:1;stroke-miterlimit:4;stroke-opacity:1;stroke-dasharray:none"
       id="rect4070"
       width="205.06096"
       height="261.62952"
       x="382.10767"
       y="357.45349" />
    <path
       style="fill:none;stroke:#000000;stroke-width:1px;stroke-linecap:butt;stroke-linejoin:miter;stroke-opacity:1"
       d="m 557.19144,419.79471 16.99656,8.12879 c -3.94907,-4.04677 -3.02254,-9.06361 -1.47796,-25.47108 -48.35817,-28.4793 -99.66427,-22.94178 -111.58609,-17.3898 -20.72273,28.32759 -18.81814,57.17772 -14.77961,84.98278 8.86777,28.3363 17.73553,28.56069 26.6033,37.68801 l -3.6949,42.1219 39.90496,16.25758 28.08126,-12.56268 -0.73898,-22.16942"
       id="path4209"
       inkscape:connector-curvature="0"
       sodipodi:nodetypes="cccccccccc" />
    <path
       style="fill:none;stroke:#000000;stroke-width:0.88670897px;stroke-linecap:butt;stroke-linejoin:miter;stroke-opacity:1"
       d="m 460.3332,384.72578 c -61.41507,-7.16568 -52.10192,117.61906 -46.31479,166.05512 4.69278,6.92138 12.21422,-9.1067 32.02449,-2.09156 -23.22504,-32.52755 -14.35854,-72.16743 -2.1648,-113.73138"
       id="path4211"
       inkscape:connector-curvature="0"
       sodipodi:nodetypes="cccc" />
  </g>
</svg>
