<?xml version="1.0" encoding="UTF-8" standalone="no"?>
<!-- Created with Inkscape (http://www.inkscape.org/) -->

<svg
   xmlns:dc="http://purl.org/dc/elements/1.1/"
   xmlns:cc="http://creativecommons.org/ns#"
   xmlns:rdf="http://www.w3.org/1999/02/22-rdf-syntax-ns#"
   xmlns:svg="http://www.w3.org/2000/svg"
   xmlns="http://www.w3.org/2000/svg"
   xmlns:xlink="http://www.w3.org/1999/xlink"
   xmlns:sodipodi="http://sodipodi.sourceforge.net/DTD/sodipodi-0.dtd"
   xmlns:inkscape="http://www.inkscape.org/namespaces/inkscape"
   width="744.09448819"
   height="1052.3622047"
   id="svg4106"
   version="1.1"
   inkscape:version="0.48.4 r9939"
   sodipodi:docname="comp1.svg">
  <defs
     id="defs4108" />
  <sodipodi:namedview
     id="base"
     pagecolor="#ffffff"
     bordercolor="#666666"
     borderopacity="1.0"
     inkscape:pageopacity="0.0"
     inkscape:pageshadow="2"
     inkscape:zoom="0.98994949"
     inkscape:cx="370.41279"
     inkscape:cy="433.70644"
     inkscape:document-units="px"
     inkscape:current-layer="layer1"
     showgrid="false"
     inkscape:window-width="1918"
     inkscape:window-height="1078"
     inkscape:window-x="0"
     inkscape:window-y="0"
     inkscape:window-maximized="0" />
  <metadata
     id="metadata4111">
    <rdf:RDF>
      <cc:Work
         rdf:about="">
        <dc:format>image/svg+xml</dc:format>
        <dc:type
           rdf:resource="http://purl.org/dc/dcmitype/StillImage" />
        <dc:title />
      </cc:Work>
    </rdf:RDF>
  </metadata>
  <g
     inkscape:label="Layer 1"
     inkscape:groupmode="layer"
     id="layer1">
    <path
       style="fill:#ffffff;fill-opacity:1;stroke:#000000;stroke-width:6.25;stroke-linecap:butt;stroke-linejoin:miter;stroke-miterlimit:4;stroke-opacity:1;stroke-dasharray:none"
       d="m 458.04804,526.33676 c -16.60651,58.31421 0.55695,87.07259 20.46407,135.19343 -45.30767,-1.52487 -18.19539,45.7593 -132.95014,0.52825 18.15991,-24.21925 16.53043,-45.53228 11.46104,-68.7248 40.40275,-17.88731 69.36737,-42.53891 101.02503,-66.99688 z"
       id="path4630"
       inkscape:connector-curvature="0"
       sodipodi:nodetypes="ccccc"
       inkscape:export-filename="/home/john/TestEngine/res/img/stand.png"
       inkscape:export-xdpi="180"
       inkscape:export-ydpi="180" />
    <path
       style="fill:#ffffff;fill-opacity:1;stroke:#000000;stroke-width:6.25;stroke-linecap:butt;stroke-linejoin:miter;stroke-miterlimit:4;stroke-opacity:1;stroke-dasharray:none"
       d="m 285.43648,521.68285 c 36.96846,64.45186 44.24787,75.87611 67.4376,79.27203 15.56753,2.36211 71.14353,-35.46421 105.49816,-61.65175 11.99683,-46.32819 11.59284,-95.57355 17.31952,-143.37674 -69.00158,-50.79441 -131.59999,-35.61953 -192.66817,-4.67953 -15.63625,22.50783 -10.54284,99.03847 2.41289,130.43599 z"
       id="path4794"
       inkscape:connector-curvature="0"
       sodipodi:nodetypes="cccccc"
       inkscape:export-filename="/home/john/TestEngine/res/img/stand.png"
       inkscape:export-xdpi="180"
       inkscape:export-ydpi="180" />
    <path
       style="fill:#ffffff;fill-opacity:1;stroke:#000000;stroke-width:2.5;stroke-linecap:butt;stroke-linejoin:miter;stroke-miterlimit:4;stroke-opacity:1;stroke-dasharray:none"
       d="m 732.35255,-10.697389 c 1.74199,35.74322 -2.95988,76.81953 11.42857,107.14285 21.80126,35.993779 44.05643,89.910359 82.28572,88.285719 22.95082,3.40242 111.66736,-50.97516 125.57143,-84.71429 11.91252,-22.906309 3.01245,-89.935819 7.14285,-130.714279 l -27.85714,-73.571431 -172.42857,10.714281 -30.71429,44.28572 z"
       id="path4626"
       inkscape:connector-curvature="0"
       sodipodi:nodetypes="ccccccccc" />
    <path
       style="fill:#ffffff;fill-opacity:1;stroke:#000000;stroke-width:1px;stroke-linecap:butt;stroke-linejoin:miter;stroke-opacity:1"
       d="m 682.96465,240.16147 c -4.32116,28.7255 -25.68569,58.45305 7.57615,94.95434 22.14931,-18.58275 25.4368,-44.71023 27.77919,-71.21575 z"
       id="path4656"
       inkscape:connector-curvature="0"
       sodipodi:nodetypes="cccc" />
    <path
       style="fill:none;stroke:#000000;stroke-width:1.4207654px;stroke-linecap:butt;stroke-linejoin:miter;stroke-opacity:1"
       d="m 765.64671,250.62794 c -14.49181,-11.48749 -20.83234,-27.23074 -72.86485,-9.3365 19.13859,13.57986 42.98663,21.43928 72.86485,9.3365 z"
       id="path4632"
       inkscape:connector-curvature="0"
       sodipodi:nodetypes="ccc" />
    <path
       sodipodi:nodetypes="ccc"
       inkscape:connector-curvature="0"
       id="path4634"
       d="m 681.33697,264.88988 c -13.65307,-9.29005 -20.32268,-22.89989 -65.50291,-3.58326 17.92761,10.85185 39.67811,16.30296 65.50291,3.58326 z"
       style="fill:none;stroke:#000000;stroke-width:1.26875448px;stroke-linecap:butt;stroke-linejoin:miter;stroke-opacity:1" />
    <path
       style="fill:none;stroke:#000000;stroke-width:6.25;stroke-linecap:butt;stroke-linejoin:miter;stroke-miterlimit:4;stroke-opacity:1;stroke-dasharray:none"
       d="m 347.50087,468.29745 c -0.10157,14.05217 -2.56238,28.02489 -12.12579,41.75861 6.76379,11.38378 14.09124,6.01878 21.2002,7.14573"
       id="path4638"
       inkscape:connector-curvature="0"
       sodipodi:nodetypes="ccc"
       inkscape:export-filename="/home/john/TestEngine/res/img/stand.png"
       inkscape:export-xdpi="180"
       inkscape:export-ydpi="180" />
    <g
       id="g4644"
       transform="matrix(0.36659627,0.01233819,-0.01233819,0.36659627,366.45768,310.62564)"
       style="stroke-width:17.03907967;stroke-miterlimit:4;stroke-dasharray:none"
       inkscape:export-filename="/home/john/TestEngine/res/img/stand.png"
       inkscape:export-xdpi="180"
       inkscape:export-ydpi="180">
      <path
         sodipodi:nodetypes="cccc"
         inkscape:connector-curvature="0"
         id="path4640"
         d="m 18.22885,365.42647 c 41.450181,-40.14631 94.95289,-43.22691 158.81344,-14.45358 -25.31279,23.59632 -44.11357,43.15104 -97.453424,44.74754 -19.332804,-2.32102 -36.036048,1.60977 -41.463189,-44.3512"
         style="fill:none;stroke:#000000;stroke-width:17.03907967;stroke-linecap:butt;stroke-linejoin:miter;stroke-miterlimit:4;stroke-opacity:1;stroke-dasharray:none" />
      <path
         sodipodi:nodetypes="ccccc"
         inkscape:connector-curvature="0"
         id="path4642"
         d="m 123.57143,334.50504 c 2.73917,24.704 -0.16328,40.94556 -5,54.28571 l -32.297241,1.15886 c -9.192417,0.11053 -17.115403,-31.42597 -17.733285,-47.32432 17.432805,-7.18141 33.679236,-11.61453 55.030526,-8.12025 z"
         style="fill:#000000;fill-opacity:1;stroke:#000000;stroke-width:17.03907967;stroke-linecap:butt;stroke-linejoin:miter;stroke-miterlimit:4;stroke-opacity:1;stroke-dasharray:none" />
    </g>
    <path
       style="fill:none;stroke:#000000;stroke-width:6.25;stroke-linecap:butt;stroke-linejoin:miter;stroke-miterlimit:4;stroke-opacity:1;stroke-dasharray:none"
       d="m 278.24386,435.25343 c 19.18686,-7.69806 34.9513,0.83778 51.38725,7.6592 0.84805,3.77677 1.32876,7.46545 -0.74191,10.54214 -12.54792,5.6371 -31.78899,7.36567 -40.86736,0.33005 -3.96875,-4.5994 -2.82518,-15.66176 3.51918,-21.97701"
       id="path4648"
       inkscape:connector-curvature="0"
       sodipodi:nodetypes="ccccc"
       inkscape:export-filename="/home/john/TestEngine/res/img/stand.png"
       inkscape:export-xdpi="180"
       inkscape:export-ydpi="180" />
    <path
       style="fill:#000000;fill-opacity:1;stroke:#000000;stroke-width:6.61728287;stroke-linecap:butt;stroke-linejoin:miter;stroke-miterlimit:4;stroke-opacity:1;stroke-dasharray:none"
       d="m 313.18493,436.77753 c 0.56912,6.46005 1.0307,14.22887 -2.57377,20.48192 -8.71516,0.51637 -6.29905,2.82556 -11.62385,-2.18298 -0.86423,-5.33764 -3.5578,-14.13133 0.11983,-21.28572 z"
       id="path4650"
       inkscape:connector-curvature="0"
       sodipodi:nodetypes="ccccc"
       inkscape:export-filename="/home/john/TestEngine/res/img/stand.png"
       inkscape:export-xdpi="180"
       inkscape:export-ydpi="180" />
    <path
       style="fill:none;stroke:#000000;stroke-width:6.25;stroke-linecap:butt;stroke-linejoin:miter;stroke-miterlimit:4;stroke-opacity:1;stroke-dasharray:none"
       d="m 332.13231,557.68936 c 10.67049,-9.36655 42.37156,-2.77907 52.25613,1.75875"
       id="path4652"
       inkscape:connector-curvature="0"
       sodipodi:nodetypes="cc"
       inkscape:export-filename="/home/john/TestEngine/res/img/stand.png"
       inkscape:export-xdpi="180"
       inkscape:export-ydpi="180" />
    <path
       style="fill:none;stroke:#000000;stroke-width:3.125;stroke-linecap:butt;stroke-linejoin:miter;stroke-miterlimit:4;stroke-opacity:1;stroke-dasharray:none"
       d="m 368.64562,575.91685 c -10.00057,3.14169 -21.8355,1.23536 -29.51943,-1.28839"
       id="path4654"
       inkscape:connector-curvature="0"
       sodipodi:nodetypes="cc"
       inkscape:export-filename="/home/john/TestEngine/res/img/stand.png"
       inkscape:export-xdpi="180"
       inkscape:export-ydpi="180" />
    <image
       y="158.78276"
       x="789.51031"
       id="image4791"
       xlink:href="file:///home/john/Downloads/fighting_stance_sketch_by_ninja_gurlo-d5iohqa.jpg"
       height="576"
       width="337" />
    <path
       style="fill:#000000;fill-opacity:1;stroke:#000000;stroke-width:1.94602585px;stroke-linecap:butt;stroke-linejoin:miter;stroke-opacity:1"
       d="m 450.54964,-52.155958 c -18.48087,4.04191 -36.34283,9.32165 -49.34311,24.32442 -11.05633,14.01638 -12.08048,28.03276022 -16.33538,42.04881 -1.25599,26.16309 15.50838,45.39495 25.02028,67.41614 -5.74583,-23.85649 -11.13094,-47.66768 4.86511,-68.80594 l 41.35294,-36.83569 c 17.8782,26.2944502 28.19776,52.58924 37.87829,78.88369 16.36472,-8.74057 17.46697,-30.39584 22.58756,-48.6507698 1.12344,-15.97102 -9.92873,-27.0722502 -17.37525,-39.6156102 -15.33607,-12.42065 -31.46189,-19.31141 -48.65044,-18.76505 z"
       id="path4796"
       inkscape:connector-curvature="0"
       sodipodi:nodetypes="cccccccccc" />
    <path
       style="fill:none;stroke:#000000;stroke-width:6.25;stroke-linecap:butt;stroke-linejoin:miter;stroke-miterlimit:4;stroke-opacity:1;stroke-dasharray:none"
       d="m 386.79658,336.75683 c -0.81334,6.98099 -1.73644,15.15788 1.45388,20.50693 -9.21541,6.98089 -18.30223,15.62852 -28.41927,10.92526 4.07502,-3.13512 10.91298,-3.73588 10.89915,-10.62154 0.58878,-2.80834 -0.16597,-5.21855 -1.08622,-7.57968 6.49757,-4.6415 11.58663,-8.86559 17.15246,-13.23097 z"
       id="path4798"
       inkscape:connector-curvature="0"
       sodipodi:nodetypes="cccccc"
       inkscape:export-filename="/home/john/TestEngine/res/img/stand.png"
       inkscape:export-xdpi="180"
       inkscape:export-ydpi="180" />
    <path
       style="fill:#ffffff;fill-opacity:1;stroke:#000000;stroke-width:6.25;stroke-linecap:butt;stroke-linejoin:miter;stroke-miterlimit:4;stroke-opacity:1;stroke-dasharray:none"
       d="m 492.18158,360.81303 c 48.78205,33.55995 37.29755,196.90017 37.85217,319.31106 -6.85968,14.30116 -13.07968,38.6295 -9.36912,53.28644 -12.8104,-25.40409 -21.82874,-27.29499 -26.15058,-63.91579 15.5583,-67.0909 2.9118,-244.97266 -34.96861,-273.33093 z"
       id="path4116"
       inkscape:connector-curvature="0"
       sodipodi:nodetypes="cccccc"
       inkscape:export-filename="/home/john/TestEngine/res/img/stand.png"
       inkscape:export-xdpi="180"
       inkscape:export-ydpi="180" />
    <path
       style="fill:#ffffff;fill-opacity:1;stroke:#000000;stroke-width:6.25;stroke-linecap:butt;stroke-linejoin:miter;stroke-miterlimit:4;stroke-opacity:1;stroke-dasharray:none"
       d="m 380.87677,309.89842 c -64.52723,2.50084 -106.57306,20.48743 -124.50381,67.54968 -1.75051,9.66562 -4.91977,50.19889 -3.59196,76.69416 7.9952,-18.74413 30.96427,-46.59554 36.10611,-55.36504 48.18312,-1.02601 45.92344,-1.26623 86.6997,-26.19787 19.74977,21.07866 27.99001,44.23241 58.89622,52.28885 12.92791,32.18084 45.21282,50.94665 32.56447,78.59114 52.23541,-22.50356 48.05071,-74.39296 25.64303,-141.28406 -29.67754,-35.67523 -51.58071,-47.76246 -111.81376,-52.27686 z"
       id="path4114"
       inkscape:connector-curvature="0"
       sodipodi:nodetypes="ccccccccc"
       inkscape:export-filename="/home/john/TestEngine/res/img/stand.png"
       inkscape:export-xdpi="180"
       inkscape:export-ydpi="180" />
    <path
       style="fill:none;stroke:#000000;stroke-width:1px;stroke-linecap:butt;stroke-linejoin:miter;stroke-opacity:1"
       d="m 1291.1198,616.84286 0,12.12183 -35.3554,22.22336 39.5963,400.84915 1.155,116.1459 89.7243,-26.5283 31.3113,-77.3144 -62.5515,-98.99766 12.8916,-309.10393 -61.6193,-10.10152 z"
       id="path4800"
       inkscape:connector-curvature="0"
       sodipodi:nodetypes="ccccccccccc" />
    <path
       sodipodi:nodetypes="ccccccc"
       inkscape:connector-curvature="0"
       id="path6425"
       d="m 302.69768,891.66288 c 2.77859,14.72923 3.93876,23.62649 2.04617,34.32399 0.93667,17.17802 -7.75902,32.13394 -7.9776,46.79223 -10.20986,6.14369 -17.18445,2.68882 -24.67682,0.77019 -8.52172,-12.77689 -6.28182,-38.29254 -5.67782,-44.37061 -0.70042,-5.56772 5.43311,-25.36888 8.13479,-38.14313 z"
       style="fill:none;stroke:#000000;stroke-width:6.25;stroke-linecap:butt;stroke-linejoin:miter;stroke-miterlimit:4;stroke-opacity:1;stroke-dasharray:none"
       inkscape:export-filename="/home/john/TestEngine/res/img/stand.png"
       inkscape:export-xdpi="180"
       inkscape:export-ydpi="180" />
    <path
       sodipodi:nodetypes="ccccccccc"
       inkscape:connector-curvature="0"
       id="path3799"
       d="m 404.27438,1144.1105 c 2.6371,49.8971 27.46415,86.5966 -1.836,184.7114 -24.0067,92.8294 -0.86549,91.5612 -1.71704,171.9598 -0.8346,58.3699 -28.3912,225.1298 -0.52515,318.4392 l -61.30435,14.195 c 5.03515,-69.5932 -0.89365,-203.9696 -24.52425,-322.4904 -17.999,-80.21 -6.1708,-135.3858 -28.3425,-226.8445 -3.24095,-33.1076 -22.8708,-75.0517 -15.369,-109.9586 z"
       style="fill:#969696;fill-opacity:1;stroke:#000000;stroke-width:6.25;stroke-linecap:butt;stroke-linejoin:miter;stroke-miterlimit:4;stroke-opacity:1;stroke-dasharray:none" />
    <path
       sodipodi:nodetypes="cccscccc"
       inkscape:connector-curvature="0"
       id="path5577"
       d="m 303.48064,1156.4227 9.95139,22.8476 -5.99878,50.827 c -13.3314,-4.4409 -37.93273,14.8828 -46.18352,6.2096 -11.52422,-12.1141 -5.21767,-3.6831 -14.87669,-9.6939 l -1.99808,-46.8079 14.84503,-24.872 z"
       style="fill:#ffffff;fill-opacity:1;stroke:#000000;stroke-width:5;stroke-linecap:butt;stroke-linejoin:miter;stroke-miterlimit:4;stroke-opacity:1;stroke-dasharray:none"
       inkscape:export-filename="/home/john/TestEngine/res/img/stand.png"
       inkscape:export-xdpi="180"
       inkscape:export-ydpi="180" />
    <path
       style="fill:#969696;fill-opacity:1;stroke:#000000;stroke-width:6.25000000000000000;stroke-linecap:butt;stroke-linejoin:miter;stroke-miterlimit:4;stroke-opacity:1;stroke-dasharray:none"
       d="m 512.27438,1144.1105 c 2.6371,49.8971 27.46415,86.5966 -1.836,184.7114 -24.0067,92.8294 -0.86549,91.5612 -1.71704,171.9598 -0.8346,58.3699 -28.3912,225.1298 -0.52515,318.4392 l -61.30435,14.195 c 5.03515,-69.5932 -0.89365,-203.9696 -24.52425,-322.4904 -17.999,-80.21 -6.1708,-135.3858 -28.3425,-226.8445 -3.24095,-33.1076 -22.8708,-75.0517 -15.369,-109.9586 z"
       id="path3812"
       inkscape:connector-curvature="0"
       sodipodi:nodetypes="ccccccccc" />
    <path
       sodipodi:nodetypes="ccccc"
       inkscape:connector-curvature="0"
       id="path4893"
       d="m 267.66864,657.0376 c -30.29515,206.26346 2.23555,314.7363 -19.15619,508.7712 l 56.77209,4.4735 c 13.08304,-201.13961 43.16997,-329.9581 36.19395,-531.77267 -27.82277,-14.26546 -49.56409,-8.01745 -73.80985,18.52797 z"
       style="fill:#202020;fill-opacity:1;stroke:#000000;stroke-width:6.25;stroke-linecap:butt;stroke-linejoin:miter;stroke-miterlimit:4;stroke-opacity:1;stroke-dasharray:none"
       inkscape:export-filename="/home/john/TestEngine/res/img/stand.png"
       inkscape:export-xdpi="180"
       inkscape:export-ydpi="180" />
    <path
       sodipodi:nodetypes="ccscc"
       inkscape:connector-curvature="0"
       id="path3013"
       d="m 285.65544,1180.5054 63.17788,-523.73593 c 18.46691,31.58709 82.43699,4.12154 78.28448,-6.66727 -8.8935,-23.10644 37.23086,590.8927 25.02266,527.5777 -58.25227,30.3961 -115.38289,24.7035 -166.48502,2.8255 z"
       style="fill:#c1c1c1;fill-opacity:1;stroke:#000000;stroke-width:6.25;stroke-linecap:butt;stroke-linejoin:miter;stroke-miterlimit:4;stroke-opacity:1;stroke-dasharray:none"
       inkscape:export-filename="/home/john/TestEngine/res/img/stand.png"
       inkscape:export-xdpi="180"
       inkscape:export-ydpi="180" />
    <path
       style="fill:#ff1541;fill-opacity:1;stroke:#000000;stroke-width:3.33442569;stroke-linecap:butt;stroke-linejoin:miter;stroke-miterlimit:4;stroke-opacity:1;stroke-dasharray:none"
       d="m 310.75566,743.20379 c -10.80934,0.0562 -20.26018,4.75912 -25.2113,17.16485 -6.49894,38.02403 65.16308,103.25876 79.66795,112.64256 17.29414,-14.14617 89.42382,-72.62353 84.60993,-110.77614 -13.44925,-38.24495 -71.99099,-10.53273 -82.33672,7.80715 -6.41494,-12.4918 -34.50034,-26.95402 -56.72986,-26.83842 z"
       id="path4897"
       inkscape:connector-curvature="0"
       sodipodi:nodetypes="sccccs"
       inkscape:export-filename="/home/john/TestEngine/res/img/stand.png"
       inkscape:export-xdpi="180"
       inkscape:export-ydpi="180" />
    <path
       inkscape:export-ydpi="180"
       inkscape:export-xdpi="180"
       inkscape:export-filename="/home/john/TestEngine/res/img/stand.png"
       sodipodi:nodetypes="cccccc"
       inkscape:connector-curvature="0"
       id="path3015"
       d="m 299.44179,1242.8467 c -17.40126,-5.5194 -22.61373,-27.7249 -38.86941,-41.3873 26.96318,-107.0662 20.52103,-343.91383 8.00322,-396.48208 5.79512,-42.27405 5.61769,-111.07735 39.04535,-171.6417 14.5149,-13.99129 55.20973,-34.55617 49.83014,-4.71759 -29.40818,29.4067 2.47671,607.04907 -58.0093,614.22867 z"
       style="fill:#161616;fill-opacity:1;stroke:#000000;stroke-width:6.25;stroke-linecap:butt;stroke-linejoin:miter;stroke-miterlimit:4;stroke-opacity:1;stroke-dasharray:none" />
    <path
       style="fill:#000000;fill-opacity:1;stroke:#000000;stroke-width:6.25;stroke-linecap:butt;stroke-linejoin:miter;stroke-opacity:1;stroke-miterlimit:4;stroke-dasharray:none"
       d="m 525.94409,1628.795 c -9.4541,62.8197 -9.759,135.5105 -20.4172,197.4118 -0.1998,44.2245 9.6566,42.9838 12.2369,71.6588 -30.7231,8.4706 -10.45683,10.1256 -76.68493,26.5116 -14.20265,-1.7583 -101.06809,17.2889 -78.09971,-25.5679 -9.88876,-71.4282 67.8526,-44.6089 80.00405,-60.5561 4.33985,-58.2583 -18.58071,-108.6931 -16.86236,-184.419 49.83775,2.685 66.94615,-6.5256 99.82325,-25.0392 z"
       id="path3814"
       inkscape:connector-curvature="0"
       sodipodi:nodetypes="cccccccc" />
    <path
       style="fill:#161616;fill-opacity:1;stroke:#000000;stroke-width:6.25;stroke-linecap:butt;stroke-linejoin:miter;stroke-miterlimit:4;stroke-opacity:1;stroke-dasharray:none"
       d="m 402.76644,787.88327 c 8.82458,51.05495 16.20114,335.60353 5.1993,456.80303 48.64331,20.3893 141.77473,-22.629 137.33968,-46.8635 -13.15189,-50.1202 -15.86816,-303.39061 -16.61869,-338.91316 -3.97917,-61.37098 -37.16181,-143.12158 -36.28529,-166.63451 0.28378,-28.47227 -3.31331,-45.13635 -8.55725,-49.2291 -13.20663,-10.30545 -19.23492,-13.35816 -20.94,-23.82063 -3.70572,-22.74152 -39.82743,11.73406 -39.82743,11.73406 -22.81649,51.14526 -15.52669,137.13834 -20.31032,156.92381 z"
       id="path3009"
       inkscape:connector-curvature="0"
       sodipodi:nodetypes="cccccsscc"
       inkscape:export-filename="/home/john/TestEngine/res/img/stand.png"
       inkscape:export-xdpi="180"
       inkscape:export-ydpi="180" />
    <path
       style="fill:none;stroke:#000000;stroke-width:2;stroke-linecap:butt;stroke-linejoin:miter;stroke-miterlimit:4;stroke-opacity:1;stroke-dasharray:none"
       d="m 1483.016,326.91464 c -18.8562,-3.44799 -37.7123,-18.61674 -56.5685,0 -16.4258,146.80884 -12.8968,289.57707 -24.3452,434.3656 l 83.9442,5.0508 z"
       id="path4823"
       inkscape:connector-curvature="0"
       sodipodi:nodetypes="ccccc" />
    <path
       style="fill:#000000;fill-opacity:1;stroke:#000000;stroke-width:6.25;stroke-linecap:butt;stroke-linejoin:miter;stroke-miterlimit:4;stroke-opacity:1;stroke-dasharray:none"
       d="m 414.40066,1643.8149 c -8.26061,54.89 -11.32676,89.6771 -6.32271,144.331 9.83121,37.3733 2.56381,50.985 11.22296,74.5912 -37.81421,-4.0922 -90.66426,11.6752 -164.58851,14.1721 -12.38345,1.7274 -23.97945,-31.0864 -14.9519,-58.892 19.9528,-18.4846 38.58505,-16.2156 60.3362,-21.3053 16.0901,-5.5649 22.7496,-11.1892 29.4001,-27.4059 2.2449,-51.684 -19.4315,-59.418 -17.92955,-125.5966 z"
       id="path3814-2-6"
       inkscape:connector-curvature="0"
       sodipodi:nodetypes="ccccccccc" />
    <path
       style="fill:#ffffff;fill-opacity:1;stroke:#000000;stroke-width:5;stroke-linecap:butt;stroke-linejoin:miter;stroke-miterlimit:4;stroke-opacity:1;stroke-dasharray:none"
       d="m 508.55678,1187.3383 9.9514,22.8476 -5.99879,50.8271 c -13.33143,-4.4408 -37.93272,14.8827 -46.18353,6.2095 -11.52421,-12.114 -5.21767,-3.683 -14.87667,-9.6939 l -1.99808,-46.808 14.84501,-24.8718 z"
       id="path5575"
       inkscape:connector-curvature="0"
       sodipodi:nodetypes="cccscccc"
       inkscape:export-filename="/home/john/TestEngine/res/img/stand.png"
       inkscape:export-xdpi="180"
       inkscape:export-ydpi="180" />
    <path
       style="fill:#202020;fill-opacity:1;stroke:#000000;stroke-width:6.25;stroke-linecap:butt;stroke-linejoin:miter;stroke-miterlimit:4;stroke-opacity:1;stroke-dasharray:none"
       d="m 528.51307,665.25523 c 16.35826,207.83362 -23.87985,328.36568 -15.58266,523.40017 l -56.9444,0.646 c 0.4704,-201.56421 -20.90403,-331.61428 -0.37461,-532.50314 28.71896,-12.36251 50.22373,-11.58194 72.90167,8.45697 z"
       id="path4846"
       inkscape:connector-curvature="0"
       sodipodi:nodetypes="ccccc"
       inkscape:export-filename="/home/john/TestEngine/res/img/stand.png"
       inkscape:export-xdpi="180"
       inkscape:export-ydpi="180" />
    <g
       id="g5567"
       transform="matrix(0.50000001,0.86602541,0.86602541,-0.50000001,-1266.6063,2299.1132)">
      <path
         sodipodi:nodetypes="cccccc"
         inkscape:connector-curvature="0"
         id="path5021"
         d="m -1858.8571,939.79075 -65.7143,-336.85714 c 46.775,-83.07921 75.8691,-172.95878 188.8571,-230.57143 100.9178,71.4424 107.081,58.06197 242.2915,162.5134 -44.6009,46.89148 -94.9176,86.86639 -238.5134,1.71284 l -46.3481,106.3655"
         style="fill:none;stroke:#000000;stroke-width:5;stroke-linecap:butt;stroke-linejoin:miter;stroke-miterlimit:4;stroke-opacity:1;stroke-dasharray:none" />
      <path
         sodipodi:nodetypes="cccc"
         inkscape:connector-curvature="0"
         id="path5023"
         d="m -1821.4286,469.50504 c -16.3702,-43.33333 26.5777,-129.52381 110,-194.28571 337.4555,67.33421 594.8496,234.25406 598.5715,351.42857 -80.0213,136.49719 -214.5955,282.81968 -317.1429,313.14285"
         style="fill:none;stroke:#000000;stroke-width:5;stroke-linecap:butt;stroke-linejoin:miter;stroke-miterlimit:4;stroke-opacity:1;stroke-dasharray:none" />
      <path
         inkscape:connector-curvature="0"
         id="path5025"
         d="m -1505.1273,327.07266 -107.0762,129.29952"
         style="fill:none;stroke:#000000;stroke-width:5;stroke-linecap:butt;stroke-linejoin:miter;stroke-miterlimit:4;stroke-opacity:1;stroke-dasharray:none" />
      <path
         sodipodi:nodetypes="cc"
         inkscape:connector-curvature="0"
         id="path5025-1"
         d="m -1358.6552,397.78334 -135.3604,141.42135"
         style="fill:none;stroke:#000000;stroke-width:5;stroke-linecap:butt;stroke-linejoin:miter;stroke-miterlimit:4;stroke-opacity:1;stroke-dasharray:none" />
      <path
         sodipodi:nodetypes="ccc"
         inkscape:connector-curvature="0"
         id="path5025-9"
         d="m -1130.3607,573.54988 -125.2589,159.6041 -114.1472,-64.64976"
         style="fill:none;stroke:#000000;stroke-width:5;stroke-linecap:butt;stroke-linejoin:miter;stroke-miterlimit:4;stroke-opacity:1;stroke-dasharray:none" />
      <path
         sodipodi:nodetypes="ccc"
         inkscape:connector-curvature="0"
         id="path5025-5"
         d="m -1205.1121,470.51431 -171.7259,187.88837 c -7.071,10e-6 -154.5532,-90.91372 -154.5532,-90.91372"
         style="fill:none;stroke:#000000;stroke-width:5;stroke-linecap:butt;stroke-linejoin:miter;stroke-miterlimit:4;stroke-opacity:1;stroke-dasharray:none" />
    </g>
  </g>
</svg>
