<?xml version="1.0" encoding="UTF-8" standalone="no"?>
<!-- Created with Inkscape (http://www.inkscape.org/) -->

<svg
   xmlns:dc="http://purl.org/dc/elements/1.1/"
   xmlns:cc="http://creativecommons.org/ns#"
   xmlns:rdf="http://www.w3.org/1999/02/22-rdf-syntax-ns#"
   xmlns:svg="http://www.w3.org/2000/svg"
   xmlns="http://www.w3.org/2000/svg"
   xmlns:sodipodi="http://sodipodi.sourceforge.net/DTD/sodipodi-0.dtd"
   xmlns:inkscape="http://www.inkscape.org/namespaces/inkscape"
   width="744.09448819"
   height="1052.3622047"
   id="svg4176"
   version="1.1"
   inkscape:version="0.48.4 r9939"
   sodipodi:docname="icopiedthis.svg">
  <defs
     id="defs4178" />
  <sodipodi:namedview
     id="base"
     pagecolor="#ffffff"
     bordercolor="#666666"
     borderopacity="1.0"
     inkscape:pageopacity="0.0"
     inkscape:pageshadow="2"
     inkscape:zoom="0.98994949"
     inkscape:cx="395.74784"
     inkscape:cy="632.18701"
     inkscape:document-units="px"
     inkscape:current-layer="layer1"
     showgrid="false"
     inkscape:window-width="1918"
     inkscape:window-height="1078"
     inkscape:window-x="0"
     inkscape:window-y="0"
     inkscape:window-maximized="0" />
  <metadata
     id="metadata4181">
    <rdf:RDF>
      <cc:Work
         rdf:about="">
        <dc:format>image/svg+xml</dc:format>
        <dc:type
           rdf:resource="http://purl.org/dc/dcmitype/StillImage" />
      </cc:Work>
    </rdf:RDF>
  </metadata>
  <g
     inkscape:label="Layer 1"
     inkscape:groupmode="layer"
     id="layer1">
    <path
       sodipodi:nodetypes="cccc"
       inkscape:connector-curvature="0"
       id="path3817"
       d="m -48.608103,263.29442 c 17.21864,0.32464 32.63931,11.76837 43.5375701,12.12183 -2.86265,1.65014 -1.75442,4.62116 -1.71726,5.65686 -3.7095001,-3.65901 -24.9025401,-13.96922 -41.8203101,-17.77869 z"
       style="fill:#000000;fill-opacity:1;stroke:#000000;stroke-width:0.1px;stroke-linecap:butt;stroke-linejoin:miter;stroke-opacity:1" />
    <path
       sodipodi:nodetypes="cc"
       inkscape:connector-curvature="0"
       id="path3819"
       d="m -15.576123,279.25483 c -6.92916,-6.96792 -16.90651,-8.30358 -25.25381,-10.70762"
       style="fill:#ffffff;fill-opacity:1;stroke:#000000;stroke-width:1;stroke-linecap:butt;stroke-linejoin:miter;stroke-miterlimit:4;stroke-opacity:1;stroke-dasharray:none" />
    <path
       sodipodi:nodetypes="ccc"
       inkscape:connector-curvature="0"
       id="path3821"
       d="m -43.557343,271.0726 c 8.08175,3.11714 20.7356,3.90909 25.96092,11.21269 -0.14172,-1.54187 -0.22656,-3.14062 -0.10102,-4.94975"
       style="fill:#ffffff;fill-opacity:1;stroke:#000000;stroke-width:1;stroke-linecap:butt;stroke-linejoin:miter;stroke-miterlimit:4;stroke-opacity:1;stroke-dasharray:none" />
    <path
       sodipodi:nodetypes="ccc"
       inkscape:connector-curvature="0"
       id="path3823"
       d="m -42.951253,272.08275 c -0.61788,5.80722 2.83051,9.95145 7.47513,12.02081 6.77188,2.32431 13.29773,4.70042 15.05127,8.08121"
       style="fill:#ffffff;fill-opacity:1;stroke:#000000;stroke-width:1;stroke-linecap:butt;stroke-linejoin:miter;stroke-miterlimit:4;stroke-opacity:1;stroke-dasharray:none" />
    <path
       sodipodi:nodetypes="cccc"
       inkscape:connector-curvature="0"
       id="path3825"
       d="m -25.879673,276.4264 c -1.62556,3.37327 -1.6753,7.11524 -1.11117,10.90965 2.95362,-0.93536 5.44768,-2.73239 6.26295,-7.67716 -0.19662,-0.67199 -0.96378,-1.49612 -5.15178,-3.23249 z"
       style="fill:#ffffff;fill-opacity:1;stroke:#000000;stroke-width:1;stroke-linecap:butt;stroke-linejoin:miter;stroke-miterlimit:4;stroke-opacity:1;stroke-dasharray:none" />
    <path
       sodipodi:nodetypes="ccccc"
       inkscape:connector-curvature="0"
       id="path3835"
       d="m -11.737543,339.15687 c -0.21766,-1.95296 -0.14305,-6.51811 2.4081301,-7.25889 -1.4888801,-1.74623 -17.1824901,-3.38527 -24.8335101,0.38985 7.07654,4.9444 9.88236,11.92502 22.02132,12.02082 1.27853,-1.71726 1.54833,-3.43452 0.40406,-5.15178 z"
       style="fill:#ffffff;fill-opacity:1;stroke:#000000;stroke-width:1;stroke-linecap:butt;stroke-linejoin:miter;stroke-miterlimit:4;stroke-opacity:1;stroke-dasharray:none" />
    <path
       sodipodi:nodetypes="cc"
       inkscape:connector-curvature="0"
       id="path3837"
       d="m -11.838553,339.3589 c -5.69556,-4.10292 -14.59955,-4.99742 -22.22336,-7.17208"
       style="fill:#ffffff;fill-opacity:1;stroke:#000000;stroke-width:1;stroke-linecap:butt;stroke-linejoin:miter;stroke-miterlimit:4;stroke-opacity:1;stroke-dasharray:none" />
    <path
       sodipodi:nodetypes="cccc"
       inkscape:connector-curvature="0"
       id="path3839"
       d="m -23.318523,278.86044 c 0.0758,1.50277 -0.34105,2.15756 -1.03572,3.25 l -1.17857,0.46428 c 0.58772,-1.86467 1.07972,-4.12815 2.21429,-3.71428 z"
       style="fill:#000000;fill-opacity:1;stroke:#000000;stroke-width:0.1px;stroke-linecap:butt;stroke-linejoin:miter;stroke-opacity:1" />
    <path
       style="fill:#000000;fill-opacity:1;stroke:#000000;stroke-width:0.1246372px;stroke-linecap:butt;stroke-linejoin:miter;stroke-opacity:1"
       d="m 149.7207,215.84916 c 2.15541,-1.17984 3.65805,-0.1603 7.78609,-0.10723 -1.75293,-0.99316 0.18318,-2.57937 -4.80186,-2.42058 -3.28837,-0.0246 -3.52871,1.03112 -2.98423,2.52781 z"
       id="path4187"
       inkscape:connector-curvature="0"
       sodipodi:nodetypes="cccc" />
    <path
       style="fill:none;stroke:#000000;stroke-width:1px;stroke-linecap:butt;stroke-linejoin:miter;stroke-opacity:1"
       d="m 152.92089,240.22586 c -4.68173,0.31223 -5.41042,0.81895 -8.73687,-0.71849"
       id="path4189"
       inkscape:connector-curvature="0"
       sodipodi:nodetypes="cc" />
    <path
       style="fill:#000000;fill-opacity:1;stroke:#000000;stroke-width:0.08315355px;stroke-linecap:butt;stroke-linejoin:miter;stroke-opacity:1"
       d="m 516.91011,635.904 c -1.76708,-0.007 -2.75758,0.0455 -5.85804,0.23474 0.38908,-0.3344 -0.26354,-1.51392 3.49146,-1.61106 2.47069,-0.14033 2.70285,0.47296 2.36658,1.37632 z"
       id="path4187-9"
       inkscape:connector-curvature="0"
       sodipodi:nodetypes="cccc" />
    <path
       sodipodi:nodetypes="cccc"
       inkscape:connector-curvature="0"
       id="path4050"
       d="m -9.8512911,572.96182 1.69825,5.4244 c -8.5539099,-6.83637 -17.7175099,0.0254 -25.7431109,-0.44882 8.014791,-1.65877 11.469681,-7.67538 24.0448809,-4.97589 z"
       style="fill:#000000;fill-opacity:1;stroke:#000000;stroke-width:0.61684096px;stroke-linecap:butt;stroke-linejoin:miter;stroke-opacity:1" />
    <path
       style="fill:none;stroke:#000000;stroke-width:2.14807367px;stroke-linecap:butt;stroke-linejoin:miter;stroke-opacity:1"
       d="m 113.62187,632.84835 c -17.475244,3.84603 -30.426902,3.98538 -43.600212,4.30631 l -6.640425,-20.08689 c 19.70966,-12.45045 32.706449,-9.89703 47.549187,-11.46944"
       id="path4052"
       inkscape:connector-curvature="0"
       sodipodi:nodetypes="cccc" />
    <path
       style="fill:none;stroke:#000000;stroke-width:2.14807367px;stroke-linecap:butt;stroke-linejoin:miter;stroke-opacity:1"
       d="m 93.99258,607.14254 c 4.384259,12.26102 5.69972,18.28104 3.354214,27.71538 l -21.111413,1.90538 c -5.588122,-4.31922 -5.594288,-14.88076 -6.421077,-24.38901"
       id="path4064"
       inkscape:connector-curvature="0"
       sodipodi:nodetypes="cccc" />
    <path
       sodipodi:nodetypes="cccc"
       inkscape:connector-curvature="0"
       id="path4068"
       d="m 89.898073,618.0731 c -0.414921,9.32081 -1.473985,9.8509 -5.750327,10.30254 -4.003944,0.30752 -3.968674,-7.29202 -4.502318,-11.79321 1.05075,-0.63 8.923675,-2.01984 10.252645,1.49067 z"
       style="fill:#000000;fill-opacity:1;stroke:#000000;stroke-width:1.33062172px;stroke-linecap:butt;stroke-linejoin:miter;stroke-opacity:1" />
    <path
       style="fill:none;stroke:#000000;stroke-width:1px;stroke-linecap:butt;stroke-linejoin:miter;stroke-opacity:1"
       d="m 318.77482,531.17331 c -8.15069,6.5 -7.9675,13 -7.5,19.5 -9.83632,-16.93312 -11.08375,-12.54582 -25.5,-54 -5.70837,6.86109 -2.69051,19.53966 -3,30 -12.23945,-14.18701 -20.00992,-38.29928 -27,-71 l -4,28.5 c -5.94343,-49.82371 -11.24147,-99.76131 5,-153.5 19.50444,-23.41 45.46478,-37.13617 70,-53 87.5472,-17.25192 120.58179,25.46003 171.5,48.5 63.15429,63.40723 6.66667,130.33333 10,195.5 -9.40146,2.9455 -12.64037,10.82104 -15.5,19 -4.35028,-13.75549 -4.63144,-28.41524 -3,-43.5 -1.2587,14.34577 -3.82674,28.47332 -13,41.5 7.1369,-20.66667 -1.2558,-41.33333 -3,-62 l -4.5,18.5 c -2.45259,-15.99928 -8.6202,-18.99596 -13.5,-26.5 l -163.5,-15 z"
       id="path4100"
       inkscape:connector-curvature="0"
       sodipodi:nodetypes="cccccccccccccccccc" />
    <path
       style="fill:none;stroke:#000000;stroke-width:1px;stroke-linecap:butt;stroke-linejoin:miter;stroke-opacity:1"
       d="m 471.68937,413.37623 c 11.95633,0.86965 17.99022,8.55012 16.61701,24.74874 l -25.8094,25.98618"
       id="path4110"
       inkscape:connector-curvature="0"
       sodipodi:nodetypes="ccc" />
    <path
       style="fill:none;stroke:#000000;stroke-width:1px;stroke-linecap:butt;stroke-linejoin:miter;stroke-opacity:1"
       d="m 467.09317,431.0539 c 5.70283,-2.74123 7.84321,4.02251 6.18719,5.12653 l -5.12653,7.77817"
       id="path4112"
       inkscape:connector-curvature="0"
       sodipodi:nodetypes="ccc" />
    <path
       style="fill:none;stroke:#000000;stroke-width:1px;stroke-linecap:butt;stroke-linejoin:miter;stroke-opacity:1"
       d="m 375.68921,555.38338 c 22.43022,-0.86445 25.62734,14.05953 30.64824,34.76955 48.20326,1.1972 73.06247,12.52571 106.53048,-12.58579 -7.5679,-20.14167 -13.58228,-35.39706 -7.07107,-63.19596"
       id="path4116"
       inkscape:connector-curvature="0"
       sodipodi:nodetypes="cccc" />
    <path
       style="fill:none;stroke:#000000;stroke-width:1px;stroke-linecap:butt;stroke-linejoin:miter;stroke-opacity:1"
       d="m 473.73442,596.51689 c 23.15829,10.35599 33.41262,17.84004 52.33199,32.54415 44.62063,29.83907 57.18377,32.43166 89.00358,66.84419 6.4453,51.67407 -6.81284,92.31376 -2.03554,141.73507 l -365.2935,-0.7071 c 17.80067,-45.73754 16.62597,-102.31813 16.29289,-158.4178 26.25244,-55.59354 67.50245,-77.06454 138.55487,-87.36247 z"
       id="path4118"
       inkscape:connector-curvature="0"
       sodipodi:nodetypes="cccccccc" />
    <path
       style="fill:none;stroke:#000000;stroke-width:1px;stroke-linecap:butt;stroke-linejoin:miter;stroke-opacity:1"
       d="m 476.27482,596.17331 c 24.88644,-9.88872 53.34831,-40.33612 73.5,-23 41.59619,27.86589 31.57971,81.04658 67.5,110.49999 l -2,10.5 c -61.9976,-21.27447 -92.6667,-65.33331 -139,-97.99999 z"
       id="path4120"
       inkscape:connector-curvature="0"
       sodipodi:nodetypes="ccccc" />
    <path
       style="fill:none;stroke:#000000;stroke-width:1px;stroke-linecap:butt;stroke-linejoin:miter;stroke-opacity:1"
       d="m 613.03445,696.21894 c -15.09682,-9.16071 -32.98645,-10.87393 -53.74011,-4.94975 -58.26646,61.07444 -98.4305,118.0965 -101.82338,176.06964 l 275.06456,-6.364 z"
       id="path4124"
       inkscape:connector-curvature="0"
       sodipodi:nodetypes="ccccc" />
    <path
       style="fill:#ffffff;fill-opacity:1;stroke:#000000;stroke-width:1.25;stroke-linecap:butt;stroke-linejoin:miter;stroke-miterlimit:4;stroke-opacity:1;stroke-dasharray:none"
       d="m 455.59228,480.43006 c 9.62243,5.33608 -74.4578,90.82304 -88.38835,84.85281 -44.88366,-15.86566 -60.74744,-55.91455 -72.12489,-99.70205 -11.1894,-38.11319 -27.90824,-74.93226 18.97056,-107.60155 29.97463,-15.78642 59.94925,-8.14285 89.92388,-2 64.38757,22.89702 44.26661,79.08528 51.6188,124.45079 z"
       id="path3320"
       inkscape:connector-curvature="0"
       sodipodi:nodetypes="cccccc" />
    <path
       style="fill:none;stroke:#000000;stroke-width:1px;stroke-linecap:butt;stroke-linejoin:miter;stroke-opacity:1"
       d="m 294.37193,427.39705 c -3.78168,8.98519 0.41835,16.19668 4.94975,23.33452 11.78511,-1.57752 23.57023,0.26803 35.35534,-6.36396 1.28164,-6.06688 4.67134,-12.4851 0.70711,-17.67767 -14.45491,-2.11683 -28.43218,-2.80073 -41.0122,0.70711 z"
       id="path4090"
       inkscape:connector-curvature="0"
       sodipodi:nodetypes="ccccc" />
    <path
       style="fill:none;stroke:#000000;stroke-width:1px;stroke-linecap:butt;stroke-linejoin:miter;stroke-opacity:1"
       d="m 380.17449,422.56862 c 5.08678,6.54094 8.47724,13.80886 19.79899,17.67767 20.52999,-0.42514 25.88296,-9.28195 38.64824,-14.02081 0.31698,-8.86083 -9.04009,-13.65837 -19.09189,-18.74874 -9.61712,6.72529 -24.14289,9.29914 -39.35534,15.09188 z"
       id="path4092"
       inkscape:connector-curvature="0"
       sodipodi:nodetypes="ccccc" />
    <path
       style="fill:none;stroke:#000000;stroke-width:1px;stroke-linecap:butt;stroke-linejoin:miter;stroke-opacity:1"
       d="m 354.23337,433.99324 c -2.13849,15.78347 -7.90582,30.02536 -6.6066,45.25484 11.20066,4.21811 13.8976,1.05422 18.62742,4.84924"
       id="path4094"
       inkscape:connector-curvature="0"
       sodipodi:nodetypes="ccc" />
    <path
       style="fill:none;stroke:#000000;stroke-width:1px;stroke-linecap:butt;stroke-linejoin:miter;stroke-opacity:1"
       d="m 422.6009,397.81989 -53.03301,16.97056"
       id="path4096"
       inkscape:connector-curvature="0" />
    <path
       style="fill:none;stroke:#000000;stroke-width:1px;stroke-linecap:butt;stroke-linejoin:miter;stroke-opacity:1"
       d="m 294.01838,400.17344 45.96194,15.55635"
       id="path4098"
       inkscape:connector-curvature="0" />
    <path
       style="fill:none;stroke:#000000;stroke-width:1px;stroke-linecap:butt;stroke-linejoin:miter;stroke-opacity:1"
       d="m 310.27482,426.17331 c -7.03768,5.08268 -6.96342,17.85743 -4.46429,23.60714 10.4966,-0.10544 17.48866,-0.40307 26.46429,-3.64285 2.56122,-5.83333 3.5613,-13.13096 -0.5,-18.96429 -7.6456,-3.67628 -23.43657,-2.37918 -21.5,-1 z"
       id="path4102"
       inkscape:connector-curvature="0"
       sodipodi:nodetypes="ccccc" />
    <path
       style="fill:none;stroke:#000000;stroke-width:1px;stroke-linecap:butt;stroke-linejoin:miter;stroke-opacity:1"
       d="m 400.77482,416.67331 c -0.16849,9.15384 0.30282,17.93446 8,22.5 10.53083,-1.51006 19.02087,-7.82691 26.20588,-11.26471 0.34748,-7.07842 -12.14462,-11.92157 -17.88235,-19 z"
       id="path4104"
       inkscape:connector-curvature="0"
       sodipodi:nodetypes="ccccc" />
    <path
       style="fill:none;stroke:#000000;stroke-width:1px;stroke-linecap:butt;stroke-linejoin:miter;stroke-opacity:1"
       d="m 430.13644,289.62214 c 17.05838,5.06842 34.11676,6.79906 51.17514,19.70889 4.43532,-10.15473 11.94913,-17.91507 20.60604,-24.78634 -4.47054,11.31353 -8.59332,22.54012 -7.51071,32.46536 19.29196,-6.58484 24.0276,-20.89748 60.4389,-18.39384 -22.30194,8.08794 -36.15633,18.28777 -49.1825,28.69466 17.0982,0.0356 36.32229,1.2859 56.7138,3.20334 l -31.83151,9.90871 c 11.24544,1.65478 18.06081,5.37693 22.24586,10.32656 -1.82461,0.17798 -13.39834,-0.14821 -13.36859,1.75255 9.5824,10.45583 -2.17219,24.86295 -3.92752,37.41836 5.02617,12.57852 15.00326,23.80678 25.10229,35.00179 l -17.32412,-11.66727 c 2.68719,10.50435 9.82539,18.04134 16.61701,25.8094 l -19.79899,-13.08147 c 4.21375,6.60411 5.44993,13.6663 3.53553,21.2132 -3.03219,-9.2501 -12.00811,-14.33959 -19.44543,-20.5061 z"
       id="path4114"
       inkscape:connector-curvature="0"
       sodipodi:nodetypes="cccccccccccccccccc" />
    <path
       style="fill:#000000;fill-opacity:1;stroke:#000000;stroke-width:1px;stroke-linecap:butt;stroke-linejoin:miter;stroke-opacity:1"
       d="m 208.91303,393.50148 c -3.75204,0.34362 -3.6434,1.65241 -4.77297,2.65165 3.66464,0.57535 7.23716,0.78223 10.42982,-0.53033 -1.53936,-0.89947 -2.15057,-2.31458 -5.65685,-2.12132 z"
       id="path4106"
       inkscape:connector-curvature="0"
       sodipodi:nodetypes="cccc" />
    <path
       style="fill:#000000;fill-opacity:1;stroke:#000000;stroke-width:1px;stroke-linecap:butt;stroke-linejoin:miter;stroke-opacity:1"
       d="m 417.00991,422.21507 c -2.26481,1.07968 -5.31402,1.71113 -4.41941,4.59619 3.25211,1.53745 6.35478,1.43113 9.36916,0.35356 0.42159,-2.34042 -1.82112,-3.79274 -4.94975,-4.94975 z"
       id="path4108"
       inkscape:connector-curvature="0"
       sodipodi:nodetypes="cccc" />
    <path
       style="fill:none;stroke:#000000;stroke-width:1px;stroke-linecap:butt;stroke-linejoin:miter;stroke-opacity:1"
       d="m 338.16413,524.02582 c 4.57516,-1.65313 7.91468,-3.84928 16.33096,-3.81444 7.04228,0.0178 14.39544,-0.11642 25.91844,-2.28794 6.42766,-0.10728 8.83278,2.47901 12.23315,4.39883"
       id="path4126"
       inkscape:connector-curvature="0"
       sodipodi:nodetypes="cccc" />
    <path
       style="fill:none;stroke:#000000;stroke-width:1px;stroke-linecap:butt;stroke-linejoin:miter;stroke-opacity:1"
       d="m 351.54481,531.37139 c 8.30943,3.33112 15.54892,0.57387 22.97171,-1.14042"
       id="path4128"
       inkscape:connector-curvature="0"
       sodipodi:nodetypes="cc" />
    <path
       style="fill:none;stroke:#000000;stroke-width:1px;stroke-linecap:butt;stroke-linejoin:miter;stroke-opacity:1"
       d="m 312.51407,626.21537 c 5.13669,14.23966 11.36354,26.29899 18.38478,36.76955 -22.38007,67.64268 -32.33005,131.14199 -43.84063,195.16151 l 106.1249,7.6568 c -16.19161,-70.32129 -15.60449,-131.72833 0.68629,-210.6173 45.52459,-13.01609 57.29335,-38.73452 85.52186,-58.66904 -55.49228,9.63258 -82.63546,-37.43303 -166.8772,29.69848 z"
       id="path4122"
       inkscape:connector-curvature="0"
       sodipodi:nodetypes="ccccccc" />
    <path
       style="fill:none;stroke:#000000;stroke-width:1px;stroke-linecap:butt;stroke-linejoin:miter;stroke-opacity:1"
       d="m 301.02546,700.8291 3.03046,54.54823"
       id="path4769"
       inkscape:connector-curvature="0" />
    <path
       style="fill:#000000;fill-opacity:1;stroke:#000000;stroke-width:1px;stroke-linecap:butt;stroke-linejoin:miter;stroke-opacity:1"
       d="m 327.33128,465.61611 c -2.26481,1.07968 -5.31402,1.71113 -4.41941,4.59619 3.25211,1.53745 6.35478,1.43113 9.36916,0.35356 0.42159,-2.34042 -1.82112,-3.79274 -4.94975,-4.94975 z"
       id="path4108-6"
       inkscape:connector-curvature="0"
       sodipodi:nodetypes="cccc" />
    <path
       style="fill:#000000;fill-opacity:1;stroke:#000000;stroke-width:1px;stroke-linecap:butt;stroke-linejoin:miter;stroke-opacity:1"
       d="m 320.02797,433.29123 c -2.26481,1.07968 -5.31402,1.71113 -4.41941,4.59619 3.25211,1.53745 6.35478,1.43113 9.36916,0.35356 0.42159,-2.34042 -1.82112,-3.79274 -4.94975,-4.94975 z"
       id="path4108-2"
       inkscape:connector-curvature="0"
       sodipodi:nodetypes="cccc" />
  </g>
</svg>
