<?xml version="1.0" encoding="UTF-8" standalone="no"?>
<!-- Created with Inkscape (http://www.inkscape.org/) -->

<svg
   xmlns:dc="http://purl.org/dc/elements/1.1/"
   xmlns:cc="http://creativecommons.org/ns#"
   xmlns:rdf="http://www.w3.org/1999/02/22-rdf-syntax-ns#"
   xmlns:svg="http://www.w3.org/2000/svg"
   xmlns="http://www.w3.org/2000/svg"
   xmlns:sodipodi="http://sodipodi.sourceforge.net/DTD/sodipodi-0.dtd"
   xmlns:inkscape="http://www.inkscape.org/namespaces/inkscape"
   width="744.09448819"
   height="1052.3622047"
   id="svg3859"
   version="1.1"
   inkscape:version="0.48.4 r9939"
   sodipodi:docname="sdfsdfsd.svg">
  <defs
     id="defs3861" />
  <sodipodi:namedview
     id="base"
     pagecolor="#ffffff"
     bordercolor="#666666"
     borderopacity="1.0"
     inkscape:pageopacity="0.0"
     inkscape:pageshadow="2"
     inkscape:zoom="0.5"
     inkscape:cx="1691.8922"
     inkscape:cy="87.23049"
     inkscape:document-units="px"
     inkscape:current-layer="g4468"
     showgrid="false"
     inkscape:window-width="1918"
     inkscape:window-height="1078"
     inkscape:window-x="0"
     inkscape:window-y="0"
     inkscape:window-maximized="0" />
  <metadata
     id="metadata3864">
    <rdf:RDF>
      <cc:Work
         rdf:about="">
        <dc:format>image/svg+xml</dc:format>
        <dc:type
           rdf:resource="http://purl.org/dc/dcmitype/StillImage" />
        <dc:title></dc:title>
      </cc:Work>
    </rdf:RDF>
  </metadata>
  <g
     inkscape:label="Layer 1"
     inkscape:groupmode="layer"
     id="layer1">
    <path
       style="fill:none;stroke:#000000;stroke-width:9.38614655;stroke-linecap:butt;stroke-linejoin:miter;stroke-miterlimit:4;stroke-opacity:1;stroke-dasharray:none"
       d="m 1220.6584,309.77371 -81.806,0.85067 c 4.0209,-6.08162 4.4646,-13.20309 18.3717,-16.41101 20.9425,0.97467 35.7128,1.53831 50.0479,2.073 9.4294,2.02069 12.3011,7.30892 13.3864,13.48734 z"
       id="path4379"
       inkscape:connector-curvature="0"
       sodipodi:nodetypes="ccccc" />
    <path
       style="fill:none;stroke:#000000;stroke-width:9.38614655;stroke-linecap:butt;stroke-linejoin:miter;stroke-miterlimit:4;stroke-opacity:1;stroke-dasharray:none"
       d="m 1138.9412,309.37069 c 9.1606,9.18271 10.6638,20.98063 47.2889,20.78323 34.1789,-2.68584 28.6843,-11.07426 34.2507,-17.87285"
       id="path4383"
       inkscape:connector-curvature="0"
       sodipodi:nodetypes="ccc" />
    <g
       id="g4468"
       inkscape:export-filename="/home/john/TestEngine/face3.png"
       inkscape:export-xdpi="90"
       inkscape:export-ydpi="90">
      <rect
         style="fill:#ffffff;fill-opacity:1;stroke:none"
         id="rect4497"
         width="222.23355"
         height="117.1777"
         x="324.25894"
         y="409.90518"
         inkscape:export-filename="/home/john/TestEngine/face3.png"
         inkscape:export-xdpi="200"
         inkscape:export-ydpi="200" />
      <path
         sodipodi:nodetypes="cccccccccccc"
         inkscape:connector-curvature="0"
         id="path3867"
         d="m 475.80134,501.28332 c 9.72884,-3.81812 6.67535,-3.29676 49.68603,0.2512 -10.2304,-47.6967 4.13158,-36.70729 -31.31562,-99.18858 -12.03091,-15.25339 -12.14815,-47.68658 35.74588,-48.83495 27.28313,-0.31437 29.97501,12.85673 39.74727,28.10313 8.67315,53.88179 -8.83957,95.82592 -14.72699,136.37819 -5.14768,37.62442 -5.87986,77.86546 -46.11192,115.48988 -31.57164,23.82124 -113.34206,10.20636 -161.27702,-23.70734 -53.95418,-37.91585 -66.02523,-85.21835 -85.5402,-150.07089 -7.82163,-59.2081 -22.1351,-130.12766 84.11107,-165.0344 90.08547,-15.33072 143.53994,-7.40102 212.34113,4.83742 l 11.20393,82.10714"
         style="fill:#ffffff;fill-opacity:1;stroke:#000000;stroke-width:6.7002039;stroke-linecap:butt;stroke-linejoin:miter;stroke-miterlimit:4;stroke-opacity:1;stroke-dasharray:none"
         inkscape:export-filename="/home/john/TestEngine/face3.png"
         inkscape:export-xdpi="200"
         inkscape:export-ydpi="200" />
      <path
         sodipodi:nodetypes="cccccc"
         inkscape:connector-curvature="0"
         id="path4421"
         d="m 182.24069,366.04637 c -88.30651,15.91802 -1.18837,267.87235 -14.56628,371.9756 -37.77969,23.79381 -74.80504,1.79502 -99.199963,2.69232 C 152.83181,571.8427 15.542996,394.71112 110.18204,234.55708 c 67.82584,-50.1789 122.88017,-11.41026 183.21125,-16.71623 -69.48622,16.69927 -114.02649,97.95578 -111.1526,148.20552 z"
         style="fill:#ffffff;fill-opacity:1;stroke:#000000;stroke-width:7.85900021;stroke-linecap:butt;stroke-linejoin:miter;stroke-miterlimit:4;stroke-opacity:1;stroke-dasharray:none"
         inkscape:export-filename="/home/john/TestEngine/face3.png"
         inkscape:export-xdpi="200"
         inkscape:export-ydpi="200" />
      <path
         sodipodi:nodetypes="ccccccccccc"
         inkscape:connector-curvature="0"
         id="path4419"
         d="m 205.74741,735.72873 c 58.48716,-56.19788 58.12904,-138.39072 20.46026,-199.64235 -31.62789,-62.86216 -50.7216,-126.30958 -39.80463,-192.91285 16.40105,-70.18734 47.40738,-99.29046 103.06244,-127.22472 133.23845,-23.75393 218.96891,11.04337 325.87458,37.72038 -40.29459,18.24448 -18.37474,33.11274 -24.1437,51.3572 -93.26491,-20.12194 -239.43532,-51.88091 -313.08326,28.09648 -49.67651,77.23348 -5.9091,142.68899 4.69564,197.61698 27.06625,58.12195 90.29966,92.14393 130.62332,111.22427 -24.65722,37.73571 9.1327,67.86501 -3.98198,93.76461 z"
         style="fill:#ffffff;fill-opacity:1;stroke:#000000;stroke-width:6;stroke-linecap:butt;stroke-linejoin:miter;stroke-miterlimit:4;stroke-opacity:1;stroke-dasharray:none"
         inkscape:export-filename="/home/john/TestEngine/face3.png"
         inkscape:export-xdpi="200"
         inkscape:export-ydpi="200" />
      <path
         sodipodi:nodetypes="cc"
         inkscape:connector-curvature="0"
         id="path4423"
         d="m 232.40395,545.00074 c 16.16141,-20.32674 55.53229,3.99959 77.43183,29.57302"
         style="fill:#ffffff;fill-opacity:1;stroke:#000000;stroke-width:6;stroke-linecap:butt;stroke-linejoin:miter;stroke-miterlimit:4;stroke-opacity:1;stroke-dasharray:none"
         inkscape:export-filename="/home/john/TestEngine/face3.png"
         inkscape:export-xdpi="200"
         inkscape:export-ydpi="200" />
      <path
         sodipodi:nodetypes="ccsc"
         inkscape:connector-curvature="0"
         id="path4443"
         d="m 249.24903,239.86739 c -53.76102,-17.00179 -102.93067,-5.0219 -117.90383,24.20369 -54.21247,106.57246 -18.58283,240.91143 -10.24198,345.73071 4.38203,55.06866 17.32787,101.98956 -29.059291,132.45575"
         style="fill:none;stroke:#000000;stroke-width:3.58939457;stroke-linecap:butt;stroke-linejoin:miter;stroke-miterlimit:4;stroke-opacity:1;stroke-dasharray:none"
         inkscape:export-filename="/home/john/TestEngine/face3.png"
         inkscape:export-xdpi="200"
         inkscape:export-ydpi="200" />
      <path
         style="fill:none;stroke:#000000;stroke-width:3.58939457;stroke-linecap:butt;stroke-linejoin:miter;stroke-miterlimit:4;stroke-opacity:1;stroke-dasharray:none"
         d="m 207.26924,278.88973 c -98.18478,-50.71362 -88.67723,231.30592 -65.33035,331.83717 12.68318,54.61358 9.24344,101.98956 -13.90101,137.08133"
         id="path4449"
         inkscape:connector-curvature="0"
         sodipodi:nodetypes="csc"
         inkscape:export-filename="/home/john/TestEngine/face3.png"
         inkscape:export-xdpi="200"
         inkscape:export-ydpi="200" />
      <path
         sodipodi:nodetypes="ccc"
         inkscape:connector-curvature="0"
         id="path4451"
         d="m 585.81086,271.92092 c -93.56908,-19.25755 -232.84445,-34.92481 -317.26848,7.84985 -76.1181,74.2236 -9.47963,165.36797 -2.85828,262.96985"
         style="fill:none;stroke:#000000;stroke-width:3.82868767;stroke-linecap:butt;stroke-linejoin:miter;stroke-miterlimit:4;stroke-opacity:1;stroke-dasharray:none"
         inkscape:export-filename="/home/john/TestEngine/face3.png"
         inkscape:export-xdpi="200"
         inkscape:export-ydpi="200" />
      <path
         sodipodi:nodetypes="ccc"
         inkscape:connector-curvature="0"
         id="path4455"
         d="m 242.8179,537.50739 c -7.19985,-58.85277 -105.17845,-250.99464 38.58672,-290.44431 128.55735,-35.2053 218.09357,-9.43306 320.12674,14.39138"
         style="fill:none;stroke:#000000;stroke-width:3.82868767;stroke-linecap:butt;stroke-linejoin:miter;stroke-miterlimit:4;stroke-opacity:1;stroke-dasharray:none"
         inkscape:export-filename="/home/john/TestEngine/face3.png"
         inkscape:export-xdpi="200"
         inkscape:export-ydpi="200" />
      <path
         style="fill:none;stroke:#000000;stroke-width:7.61286592;stroke-linecap:butt;stroke-linejoin:miter;stroke-miterlimit:4;stroke-opacity:1;stroke-dasharray:none"
         d="m 347.26173,368.75619 c 33.51715,-12.76664 54.59177,-7.43992 75.69929,-0.0745 6.28647,6.90612 8.06797,12.61359 4.8772,21.19611 -19.32461,8.15192 -54.53699,8.73827 -87.74004,1.59235 -2.05768,-7.77685 -3.79937,-19.60117 7.16355,-22.71401 z"
         id="path4406"
         inkscape:connector-curvature="0"
         sodipodi:nodetypes="ccccc"
         inkscape:export-filename="/home/john/TestEngine/face3.png"
         inkscape:export-xdpi="200"
         inkscape:export-ydpi="200" />
      <path
         sodipodi:nodetypes="cccc"
         inkscape:connector-curvature="0"
         id="path4425"
         d="m 361.15328,366.34683 c 6.67762,16.79609 3.7628,34.47625 8.6228,28.68232 41.62605,9.69157 32.78481,-9.06661 36.40308,-28.04786 -15.00862,-5.53699 -30.01726,-5.24371 -45.02588,-0.63446 z"
         style="fill:#000000;fill-opacity:1;stroke:#000000;stroke-width:0.94274163px;stroke-linecap:butt;stroke-linejoin:miter;stroke-opacity:1"
         inkscape:export-filename="/home/john/TestEngine/face3.png"
         inkscape:export-xdpi="200"
         inkscape:export-ydpi="200" />
      <path
         sodipodi:nodetypes="cccccc"
         inkscape:connector-curvature="0"
         id="path4431"
         d="m 318.8706,351.5997 4.96424,9.20425 c 18.35085,1.47632 59.16581,-16.17175 102.11552,-6.56924 l -2.79852,-7.75301 c -41.33969,-17.44327 -81.29717,0.82362 -104.28121,5.11812 z"
         style="fill:#000000;fill-opacity:1;stroke:#000000;stroke-width:0.9989835px;stroke-linecap:butt;stroke-linejoin:miter;stroke-opacity:1"
         inkscape:export-filename="/home/john/TestEngine/face3.png"
         inkscape:export-xdpi="200"
         inkscape:export-ydpi="200" />
      <path
         style="fill:#000000;fill-opacity:1;stroke:#000000;stroke-width:0.9989835px;stroke-linecap:butt;stroke-linejoin:miter;stroke-opacity:1"
         d="m 471.00909,341.42676 4.96423,9.20424 c 18.35085,1.47632 43.15661,-16.17174 86.10631,-6.56923 l -2.79852,-7.75301 c -41.33968,-17.44328 -65.28795,0.82363 -88.27199,5.11813 z"
         id="path4433"
         inkscape:connector-curvature="0"
         sodipodi:nodetypes="cccccc"
         inkscape:export-filename="/home/john/TestEngine/face3.png"
         inkscape:export-xdpi="200"
         inkscape:export-ydpi="200" />
      <path
         sodipodi:nodetypes="ccccc"
         inkscape:connector-curvature="0"
         id="path4435"
         d="m 492.88993,378.84989 c 23.05844,-12.76665 45.61532,-12.99576 66.72286,-5.63029 6.28646,6.90611 8.06796,12.61359 4.8772,21.1961 -19.32463,8.15193 -40.00373,8.27571 -73.20678,1.12981 0.87159,-7.77687 -4.74482,-13.58277 1.60672,-16.69562 z"
         style="fill:none;stroke:#000000;stroke-width:7.61286592;stroke-linecap:butt;stroke-linejoin:miter;stroke-miterlimit:4;stroke-opacity:1;stroke-dasharray:none"
         inkscape:export-filename="/home/john/TestEngine/face3.png"
         inkscape:export-xdpi="200"
         inkscape:export-ydpi="200" />
      <path
         style="fill:#000000;fill-opacity:1;stroke:#000000;stroke-width:0.94274163px;stroke-linecap:butt;stroke-linejoin:miter;stroke-opacity:1"
         d="m 509.81194,370.88469 c 6.67763,16.79608 3.7628,34.47626 8.62279,28.68232 41.62606,9.69157 32.78482,-9.06662 36.40309,-28.04785 -15.00862,-5.537 -30.01725,-5.24371 -45.02588,-0.63447 z"
         id="path4437"
         inkscape:connector-curvature="0"
         sodipodi:nodetypes="cccc"
         inkscape:export-filename="/home/john/TestEngine/face3.png"
         inkscape:export-xdpi="200"
         inkscape:export-ydpi="200" />
      <path
         sodipodi:nodetypes="cc"
         inkscape:connector-curvature="0"
         id="path4439"
         d="m 445.17187,571.37256 c 32.9661,-17.16839 74.53598,-16.40277 91.50984,-9.15672"
         style="fill:none;stroke:#000000;stroke-width:4.61086035;stroke-linecap:butt;stroke-linejoin:miter;stroke-miterlimit:4;stroke-opacity:1;stroke-dasharray:none"
         inkscape:export-filename="/home/john/TestEngine/face3.png"
         inkscape:export-xdpi="200"
         inkscape:export-ydpi="200" />
      <path
         sodipodi:nodetypes="cccc"
         inkscape:connector-curvature="0"
         id="path4441"
         d="m 445.26048,570.5366 c 2.47365,-9.46554 27.83603,-20.63447 46.46375,-21.54813 18.22775,-1.64684 42.49238,-1.35531 44.43813,12.90534 -30.78229,11.07331 -60.82952,9.64475 -90.90188,8.64279 z"
         style="fill:none;stroke:#000000;stroke-width:5.53303289;stroke-linecap:butt;stroke-linejoin:miter;stroke-miterlimit:4;stroke-opacity:1;stroke-dasharray:none"
         inkscape:export-filename="/home/john/TestEngine/face3.png"
         inkscape:export-xdpi="200"
         inkscape:export-ydpi="200" />
      <path
         style="fill:none;stroke:#000000;stroke-width:10;stroke-linecap:butt;stroke-linejoin:miter;stroke-miterlimit:4;stroke-opacity:1;stroke-dasharray:none"
         d="m 2643.3045,1200.5407 -132.2857,25.7143 -21.4286,765.4286 534.5714,-10.8571 -13.7143,-771.4287 -152.2857,-26.5714 c -1.4575,24.2857 1.0162,74.5714 -18.5714,98.8572 -49.3664,21.7684 -112.7549,42.5253 -177.7143,3.7143 -33.1694,-26.4022 -47.6193,-30.294 -18.5714,-84.8572 z"
         id="path4559"
         inkscape:connector-curvature="0"
         sodipodi:nodetypes="ccccccccc" />
      <path
         style="fill:#1b1b1b;fill-opacity:1;stroke:#000000;stroke-width:10;stroke-linecap:butt;stroke-linejoin:miter;stroke-miterlimit:4;stroke-opacity:1;stroke-dasharray:none"
         d="m 116,1484.3622 -28,996 184,-4 c 20.62445,-287.9831 -67.03697,-532.6519 62,-864 89.24388,281.3333 36.28261,562.6667 54,844 l 192,-8 -68,-972"
         id="path4571"
         inkscape:connector-curvature="0"
         sodipodi:nodetypes="ccccccc" />
      <path
         style="fill:#474747;fill-opacity:1;stroke:#000000;stroke-width:10;stroke-linecap:butt;stroke-linejoin:miter;stroke-miterlimit:4;stroke-opacity:1;stroke-dasharray:none"
         d="m 1698.2742,1376.9917 -167.8246,-68.2393 -23.8033,-803.15681 571.1052,77.4673 -31.9849,773.72581 -161.6244,28.2842 c 13.7881,-26.2356 58.7734,-63.196 3.2952,-83.7946 -31.405,-11.6604 -162.1548,-18.3789 -219.6156,12.8897 -18.7577,10.2074 40.8701,42.5616 30.4524,62.8237 z"
         id="path4561"
         inkscape:connector-curvature="0"
         sodipodi:nodetypes="ccccccssc"
         inkscape:export-filename="/home/john/TestEngine/coat.png"
         inkscape:export-xdpi="200"
         inkscape:export-ydpi="200" />
      <path
         style="fill:none;stroke:#000000;stroke-width:10;stroke-linecap:butt;stroke-linejoin:miter;stroke-miterlimit:4;stroke-opacity:1;stroke-dasharray:none"
         d="m 1650.1909,1378.2039 100.6518,-51.4558 -96.6905,-800.39111 301.6834,38.0156 -76.5421,769.99071 52.3259,53.7401 z"
         id="path4565"
         inkscape:connector-curvature="0"
         sodipodi:nodetypes="ccccccc"
         inkscape:export-filename="/home/john/TestEngine/coat.png"
         inkscape:export-xdpi="200"
         inkscape:export-ydpi="200" />
      <path
         style="fill:none;stroke:#000000;stroke-width:10;stroke-linecap:butt;stroke-linejoin:miter;stroke-miterlimit:4;stroke-opacity:1;stroke-dasharray:none"
         d="M 1634.6346,1260.8242 1592.673,516.34259"
         id="path4567"
         inkscape:connector-curvature="0"
         inkscape:export-filename="/home/john/TestEngine/coat.png"
         inkscape:export-xdpi="200"
         inkscape:export-ydpi="200"
         sodipodi:nodetypes="cc" />
      <path
         style="fill:none;stroke:#000000;stroke-width:10;stroke-linecap:butt;stroke-linejoin:miter;stroke-miterlimit:4;stroke-opacity:1;stroke-dasharray:none"
         d="m 1959.9037,1282.0374 -9.6868,-718.31991"
         id="path4569"
         inkscape:connector-curvature="0"
         inkscape:export-filename="/home/john/TestEngine/coat.png"
         inkscape:export-xdpi="200"
         inkscape:export-ydpi="200"
         sodipodi:nodetypes="cc" />
      <path
         style="fill:#cbcbcb;fill-opacity:1;stroke:#000000;stroke-width:1px;stroke-linecap:butt;stroke-linejoin:miter;stroke-opacity:1"
         d="m 1654.6436,522.14279 97.3707,774.03671 124.4508,8.4853 80.6116,-738.72381 z"
         id="path4573"
         inkscape:connector-curvature="0"
         inkscape:export-filename="/home/john/TestEngine/coat.png"
         inkscape:export-xdpi="200"
         inkscape:export-ydpi="200"
         sodipodi:nodetypes="ccccc" />
      <path
         style="fill:#ff2a4e;fill-opacity:1;stroke:none"
         d="m 1812.788,924.51569 c -30.2116,28.9936 -60.7308,51.8783 -90.4449,97.88211 l 17.9581,203.8396 c 21.2369,-0.8149 43.3804,-16.6948 66.5254,-51.8868 z"
         id="path4575"
         inkscape:connector-curvature="0"
         sodipodi:nodetypes="ccccc"
         inkscape:export-filename="/home/john/TestEngine/coat.png"
         inkscape:export-xdpi="200"
         inkscape:export-ydpi="200" />
      <path
         sodipodi:nodetypes="ccccc"
         inkscape:connector-curvature="0"
         id="path4577"
         d="m 1810.3347,924.87609 c 31.8856,33.6653 69.861,59.9939 98.2334,118.26371 l -19.2336,179.4725 c -27.408,8.3349 -55.6365,-5.1819 -84.9613,-47.9013 z"
         style="fill:#ff2a4e;fill-opacity:1;stroke:none"
         inkscape:export-filename="/home/john/TestEngine/coat.png"
         inkscape:export-xdpi="200"
         inkscape:export-ydpi="200" />
    </g>
  </g>
</svg>
