<?xml version="1.0" encoding="UTF-8" standalone="no"?>
<!-- Created with Inkscape (http://www.inkscape.org/) -->

<svg
   xmlns:dc="http://purl.org/dc/elements/1.1/"
   xmlns:cc="http://creativecommons.org/ns#"
   xmlns:rdf="http://www.w3.org/1999/02/22-rdf-syntax-ns#"
   xmlns:svg="http://www.w3.org/2000/svg"
   xmlns="http://www.w3.org/2000/svg"
   xmlns:sodipodi="http://sodipodi.sourceforge.net/DTD/sodipodi-0.dtd"
   xmlns:inkscape="http://www.inkscape.org/namespaces/inkscape"
   width="744.09448819"
   height="1052.3622047"
   id="svg3834"
   version="1.1"
   inkscape:version="0.48.4 r9939"
   sodipodi:docname="withjacket.svg">
  <defs
     id="defs3836">
    <inkscape:path-effect
       effect="spiro"
       id="path-effect3810"
       is_visible="true" />
    <inkscape:path-effect
       effect="spiro"
       id="path-effect4398"
       is_visible="true" />
    <inkscape:path-effect
       effect="spiro"
       id="path-effect4390"
       is_visible="true" />
  </defs>
  <sodipodi:namedview
     id="base"
     pagecolor="#ffffff"
     bordercolor="#666666"
     borderopacity="1.0"
     inkscape:pageopacity="0.0"
     inkscape:pageshadow="2"
     inkscape:zoom="0.7"
     inkscape:cx="368.48967"
     inkscape:cy="641.30956"
     inkscape:document-units="px"
     inkscape:current-layer="layer1"
     showgrid="false"
     showguides="true"
     inkscape:guide-bbox="true"
     inkscape:window-width="1918"
     inkscape:window-height="1078"
     inkscape:window-x="0"
     inkscape:window-y="0"
     inkscape:window-maximized="0" />
  <metadata
     id="metadata3839">
    <rdf:RDF>
      <cc:Work
         rdf:about="">
        <dc:format>image/svg+xml</dc:format>
        <dc:type
           rdf:resource="http://purl.org/dc/dcmitype/StillImage" />
        <dc:title></dc:title>
      </cc:Work>
    </rdf:RDF>
  </metadata>
  <g
     inkscape:label="Layer 1"
     inkscape:groupmode="layer"
     id="layer1">
    <path
       style="fill:none;stroke:#000000;stroke-width:2.5;stroke-linecap:butt;stroke-linejoin:miter;stroke-miterlimit:4;stroke-opacity:1;stroke-dasharray:none"
       d="m 377.24953,205.73714 c -7.47912,47.72543 6.85196,49.19173 17.71864,84.40872 l -65.13709,1.81206 c 7.36879,-13.24967 3.34975,-37.96437 -1.61653,-44.35645"
       id="path3862"
       inkscape:connector-curvature="0"
       sodipodi:nodetypes="cccc" />
    <path
       style="fill:#000000;fill-opacity:1;stroke:#000000;stroke-width:2.5;stroke-linecap:butt;stroke-linejoin:miter;stroke-miterlimit:4;stroke-opacity:1;stroke-dasharray:none"
       d="m 829.5703,505.42406 28.57143,-12.14286 c -2.05258,3.07944 -0.56725,0.96168 -0.0303,1.60855 -2.04444,1.12539 -28.14571,11.51748 -28.14571,11.51748 1.21158,-1.40476 0.52042,0.42159 -0.3954,-0.98317 z"
       id="path3866"
       inkscape:connector-curvature="0"
       sodipodi:nodetypes="ccccc" />
    <path
       style="fill:none;stroke:#000000;stroke-width:1.25;stroke-linecap:butt;stroke-linejoin:miter;stroke-miterlimit:4;stroke-opacity:1;stroke-dasharray:none"
       d="m 995.37087,224.47029 c 1.99533,-0.31314 7.87043,-1.55604 13.10713,-3.48985 4.4173,-1.32818 5.1053,0.4987 9.75,0.98985"
       id="path3870"
       inkscape:connector-curvature="0"
       sodipodi:nodetypes="ccc" />
    <path
       style="fill:none;stroke:#000000;stroke-width:1.25;stroke-linecap:butt;stroke-linejoin:miter;stroke-miterlimit:4;stroke-opacity:1;stroke-dasharray:none"
       d="m 997.79046,232.36315 c 4.04764,0.12829 5.21134,-0.72813 9.25894,-2.60325"
       id="path3872"
       inkscape:connector-curvature="0"
       sodipodi:nodetypes="cc" />
    <path
       style="fill:none;stroke:#000000;stroke-width:1.25;stroke-linecap:butt;stroke-linejoin:miter;stroke-miterlimit:4;stroke-opacity:1;stroke-dasharray:none"
       d="m 904.52365,405.5602 c -4.47154,-2.49538 -20.85767,1.95144 -24.5815,7.94018 1.4814,5.47724 8.66145,7.42863 14.83983,4.77835 5.53598,-3.55608 15.43323,-8.29875 9.74167,-12.71853 z"
       id="path3874"
       inkscape:connector-curvature="0"
       sodipodi:nodetypes="cccc" />
    <path
       style="fill:none;stroke:#000000;stroke-width:1.25;stroke-linecap:butt;stroke-linejoin:miter;stroke-miterlimit:4;stroke-opacity:1;stroke-dasharray:none"
       d="m 884.13679,410.13868 c 2.1342,-1.79437 5.03406,-2.82308 7.85714,-3.92857 4.26502,-0.63277 6.59215,4.31848 7.58929,6.69643 -1.8641,2.19054 -5.24947,4.20179 -9.46429,5.89286 -4.27806,-1.2881 -6.46438,-4.04041 -5.98214,-8.66072 z"
       id="path4424"
       inkscape:connector-curvature="0"
       sodipodi:nodetypes="ccccc" />
    <path
       sodipodi:nodetypes="ccccc"
       inkscape:connector-curvature="0"
       id="path4426"
       d="m 887.74904,411.65645 c 0.60414,-0.50792 1.42495,-0.7991 2.22414,-1.112 1.25782,0.478 1.43633,1.17185 1.71855,1.84496 -0.52766,0.62008 -1.05628,1.23995 -2.24931,1.71857 -1.21097,-0.36462 -1.82986,-1.14365 -1.69338,-2.45153 z"
       style="fill:#3f3f3f;fill-opacity:1;stroke:#000000;stroke-width:1.25;stroke-linecap:butt;stroke-linejoin:miter;stroke-miterlimit:4;stroke-opacity:1;stroke-dasharray:none" />
    <path
       style="fill:#c1c1c1;fill-opacity:1;stroke:#000000;stroke-width:2.0625;stroke-linecap:butt;stroke-linejoin:miter;stroke-miterlimit:4;stroke-opacity:1;stroke-dasharray:none"
       d="m 410.49942,634.36092 c 1.48558,28.1052 4.29528,49.06216 -12.20711,104.31983 -13.52063,52.28192 -8.93285,56.1884 -9.41173,101.4645 4.21063,28.83179 -24.47534,126.79734 -9.38721,179.34925 l -40.5276,0 c 2.83536,-39.19578 5.49661,-106.87718 -7.81254,-173.63294 -10.13802,-45.17504 -3.47581,-76.25334 -15.96296,-127.75953 -5.36078,-30.26908 -13.56964,-50.35542 -11.86924,-85.17018 z"
       id="path3812"
       inkscape:connector-curvature="0"
       sodipodi:nodetypes="ccccccccc" />
    <path
       style="fill:none;stroke:#000000;stroke-width:1px;stroke-linecap:butt;stroke-linejoin:miter;stroke-opacity:1"
       d="m 322.74374,307.37468 6.56599,-14.64721 73.23606,-2.02031 c 25.22157,41.03342 -0.0812,213.78685 0.42386,349.65237 l -99.35789,-2.52538 c -0.46877,-43.91392 12.34918,-161.82217 -2.33352,-235.37112 -3.47329,-17.3985 -2.91901,-29.75142 1.56715,-43.6637 6.53769,-20.27437 15.07062,-39.08536 19.89835,-51.42465 z"
       id="path5854"
       inkscape:connector-curvature="0"
       sodipodi:nodetypes="cccccssc" />
    <path
       style="fill:#161616;fill-opacity:1;stroke:#000000;stroke-width:4.62277031;stroke-linecap:butt;stroke-linejoin:miter;stroke-miterlimit:4;stroke-opacity:1;stroke-dasharray:none"
       d="m 326.53097,289.31759 c -2.32614,42.10268 -28.3932,65.31401 -27.21349,75.08537 0.27814,28.17419 29.6642,221.60749 -0.73786,283.74881 32.95178,-4.74187 85.72372,11.09833 120.79214,-4.97131 -14.6989,-59.53343 -13.52933,-130.36385 -6.93706,-244.73663 -0.86241,-41.15884 6.86967,-79.17371 -12.88121,-113.18717 -38.01386,2.83888 -51.75552,-4.3335 -73.02252,4.0609 z"
       id="path4452"
       inkscape:connector-curvature="0"
       sodipodi:nodetypes="cccccccc" />
    <path
       style="fill:#202020;fill-opacity:1;stroke:#000000;stroke-width:5;stroke-linecap:butt;stroke-linejoin:miter;stroke-miterlimit:4;stroke-opacity:1;stroke-dasharray:none"
       d="m 338.76934,311.21993 c -16.41043,115.56052 9.01457,181.42385 -1.42857,290 l 40,1.42857 c 4.43651,-112.38095 22.53222,-184.7619 12.85714,-297.14285 -19.88866,-7.43096 -40.73298,-18.11119 -51.42857,5.71428 z"
       id="path4464"
       inkscape:connector-curvature="0"
       sodipodi:nodetypes="ccccc" />
    <path
       style="fill:none;stroke:#000000;stroke-width:1px;stroke-linecap:butt;stroke-linejoin:miter;stroke-opacity:1"
       d="m -436.09811,197.69447 c 5.81611,45.59524 -2.57785,123.39352 4.30638,168.98876"
       id="path4468"
       inkscape:connector-curvature="0"
       sodipodi:nodetypes="cc" />
    <path
       style="fill:none;stroke:#000000;stroke-width:1px;stroke-linecap:butt;stroke-linejoin:miter;stroke-opacity:1"
       d="m 1.7450316,366.03619 c -2.01586997,52.71576 3.59261,123.44738 -1.49999997,169.14286 l 21.50000037,0"
       id="path3030"
       inkscape:connector-curvature="0"
       sodipodi:nodetypes="ccc" />
    <path
       style="fill:#525252;fill-opacity:1;stroke:#000000;stroke-width:1px;stroke-linecap:butt;stroke-linejoin:miter;stroke-opacity:1"
       d="m 730.14221,262.34295 c -6.68297,-6.20124 -10.49013,-14.70312 -21.42857,-17.49999"
       id="path3032"
       inkscape:connector-curvature="0"
       sodipodi:nodetypes="cc" />
    <path
       style="fill:#ffffff;fill-opacity:1;stroke:#000000;stroke-width:2.5;stroke-linecap:butt;stroke-linejoin:miter;stroke-miterlimit:4;stroke-opacity:1;stroke-dasharray:none"
       d="m 407.32495,115.80275 c 6.16589,-4.25967 12.4744,-7.70323 21.2132,-2.6066 48.38182,103.45982 7.41625,132.70731 28.12438,201.06096 -18.6034,-3.64723 -31.62793,-11.35182 -35.43656,-25.75889 12.86691,-86.72512 13.917,-113.30328 -12.87057,-147.44166 z"
       id="path3864"
       inkscape:connector-curvature="0"
       sodipodi:nodetypes="cccccc" />
    <path
       style="fill:#000000;fill-opacity:1;stroke:none"
       d="m 983.30312,204.90452 c 1.79611,-0.11256 2.62622,-0.0641 6.26269,-0.48341 -0.54442,-0.45078 -0.69073,-0.7025 -2.5,-1.78571 -2.8756,0.75637 -3.1499,1.51275 -3.76269,2.26912 z"
       id="path3818"
       inkscape:connector-curvature="0"
       sodipodi:nodetypes="cccc" />
    <rect
       style="fill:none;stroke:#000000;stroke-width:2.0625;stroke-miterlimit:4;stroke-opacity:1;stroke-dasharray:none"
       id="rect5744"
       width="157.14282"
       height="202.14285"
       x="33.571419"
       y="71.647896" />
    <path
       style="fill:none;stroke:#000000;stroke-width:1px;stroke-linecap:butt;stroke-linejoin:miter;stroke-opacity:1"
       d="M 166.42857,200.21933 C 138.75865,213.55929 118.61784,240.20545 82.857143,240.93361 62.859726,221.80519 59.308839,195.28585 50.714285,168.07647 45.333407,157.34857 41.591302,136.28452 45,123.79075 c 12.130784,-16.69081 42.567637,-26.796659 82.39412,-14.97897 5.29375,4.45354 4.35579,36.65432 20.47294,33.65554 18.02208,-3.35322 20.43328,34.59058 18.56151,57.75201 z"
       id="path5746"
       inkscape:connector-curvature="0"
       sodipodi:nodetypes="cccccsc" />
    <path
       style="fill:none;stroke:#000000;stroke-width:1px;stroke-linecap:butt;stroke-linejoin:miter;stroke-opacity:1"
       d="m 45,145.21932 c 7.899177,-7.23398 15.549908,-6.08287 21.642857,-1.42857 -3.569761,13.83334 -10.013923,30.52382 -8.785714,40.42858 7.440869,0.44702 12.450519,0.24721 17.999999,-2.14286"
       id="path5748"
       inkscape:connector-curvature="0"
       sodipodi:nodetypes="cccc" />
    <path
       style="fill:none;stroke:#000000;stroke-width:1px;stroke-linecap:butt;stroke-linejoin:miter;stroke-opacity:1"
       d="m 82.119442,145.77883 c 8.501657,-2.54915 14.915333,-5.15183 31.997968,-2.47958 -0.16167,7.60847 -0.64122,8.86935 -1.11741,8.84865 -14.61682,3.99888 -21.383033,5.07247 -24.571428,3.35714 -4.910197,-1.49457 -5.852335,-3.53542 -6.30913,-9.72621 z"
       id="path5750"
       inkscape:connector-curvature="0"
       sodipodi:nodetypes="ccccc" />
    <path
       style="fill:none;stroke:#000000;stroke-width:1px;stroke-linecap:butt;stroke-linejoin:miter;stroke-opacity:1"
       d="m 65.357143,214.86218 c 0.737956,-0.96672 1.330313,-1.99168 3.214286,-2.5 5.288548,-1.65107 9.931228,-1.76923 14.642857,-1.78571 6.503741,0.41452 6.120725,1.42497 8.214286,2.5"
       id="path5752"
       inkscape:connector-curvature="0"
       sodipodi:nodetypes="cccc" />
    <path
       style="fill:#ffffff;fill-opacity:1;stroke:#000000;stroke-width:1.09189367;stroke-linecap:butt;stroke-linejoin:miter;stroke-miterlimit:4;stroke-opacity:1;stroke-dasharray:none"
       d="m 142.85003,151.33674 c -2.83485,-5.43052 4.09147,-23.36013 13.15478,-17.31444 9.06332,6.04569 -0.78816,24.34826 -2.28619,35.90193 -3.91329,3.00567 -5.66944,1.38563 -6.55096,-2.0543 -0.0889,-8.7248 -2.02782,-8.6135 -4.31763,-16.53319 z"
       id="path4444-6"
       inkscape:connector-curvature="0"
       sodipodi:nodetypes="ccccc" />
    <path
       style="fill:none;stroke:#000000;stroke-width:1.09189367;stroke-linecap:butt;stroke-linejoin:miter;stroke-miterlimit:4;stroke-opacity:1;stroke-dasharray:none"
       d="m 148.23163,145.5322 c 3.38534,-1.20679 4.7063,2.75507 4.93953,9.44022 -3.19327,8.29914 -4.636,5.05975 -6.66075,5.65617"
       id="path4446-3"
       inkscape:connector-curvature="0"
       sodipodi:nodetypes="ccc" />
    <path
       style="fill:none;stroke:#000000;stroke-width:1.09189367;stroke-linecap:butt;stroke-linejoin:miter;stroke-miterlimit:4;stroke-opacity:1;stroke-dasharray:none"
       d="m 149.51952,155.87894 c -1.69753,-2.20623 -1.50991,-6.36115 -1.46613,-10.36742 -0.26765,-2.90592 1.32357,-5.32151 5.05562,-7.17246 7.92,19.54422 -0.85329,17.57051 -1.39384,26.20901"
       id="path4448-5"
       inkscape:connector-curvature="0"
       sodipodi:nodetypes="cccc" />
    <path
       style="fill:none;stroke:#000000;stroke-width:1.09189367;stroke-linecap:butt;stroke-linejoin:miter;stroke-miterlimit:4;stroke-opacity:1;stroke-dasharray:none"
       d="m 151.16125,156.84526 c -3.49198,-2.40824 -4.13586,-1.45264 -5.56209,-1.42104"
       id="path4450-7"
       inkscape:connector-curvature="0"
       sodipodi:nodetypes="cc" />
    <path
       style="fill:none;stroke:#000000;stroke-width:1px;stroke-linecap:butt;stroke-linejoin:miter;stroke-opacity:1"
       d="m 96.071429,240.21932 c 4.098791,5.29505 8.262931,10.48316 2.142857,32.5 l 68.571424,0.35715 c -2.5142,-21.36233 -10.17921,-37.20595 -0.35714,-71.78572 10.52194,-15.58614 18.15822,-35.50076 21.07143,-62.5 C 182.79417,95.758957 162.25827,83.192378 145.35714,78.790753 63.900264,71.058187 59.203551,91.404762 44.785714,95.362182 c -7.413094,12.415278 -5.990746,17.969798 -8,31.285718 l 7.5,-3.92858"
       id="path5805"
       inkscape:connector-curvature="0"
       sodipodi:nodetypes="ccccccccc" />
    <path
       style="fill:none;stroke:#000000;stroke-width:0.73892361;stroke-linecap:butt;stroke-linejoin:miter;stroke-miterlimit:4;stroke-opacity:1;stroke-dasharray:none"
       d="m 69.306594,224.04718 c 3.774247,0.0481 4.859389,-0.27287 8.633636,-0.97559"
       id="path3872-6"
       inkscape:connector-curvature="0"
       sodipodi:nodetypes="cc" />
    <path
       style="fill:none;stroke:#000000;stroke-width:1px;stroke-linecap:butt;stroke-linejoin:miter;stroke-opacity:1"
       d="m 170.71578,92.717261 c 39.46569,-35.821128 19.29387,121.198259 42.42641,168.190399 -15.48901,12.23818 -27.5237,3.42319 -38.46702,-8.42386 6.89466,-10.83516 6.65414,-48.80255 12.45905,-119.43683 -6.36941,-20.03469 -16.41844,-40.329709 -16.41844,-40.329709 z"
       id="path5825"
       inkscape:connector-curvature="0"
       sodipodi:nodetypes="ccccc" />
    <path
       style="fill:none;stroke:#000000;stroke-width:1px;stroke-linecap:butt;stroke-linejoin:miter;stroke-opacity:1"
       d="m 64.629458,149.2452 c -8.133856,-0.89878 -11.901517,1.8775 -17.046324,3.07106 -0.08262,4.04061 -0.135501,6.08123 0.671955,10.12184 8.14205,-2.68149 9.774311,-2.74836 14.626907,-3.93465 -0.08135,-3.75243 4.851963,-5.16991 1.747462,-9.25825 z"
       id="path5827"
       inkscape:connector-curvature="0"
       sodipodi:nodetypes="ccccc" />
    <path
       style="fill:none;stroke:#000000;stroke-width:1px;stroke-linecap:butt;stroke-linejoin:miter;stroke-opacity:1"
       d="M 97.984797,263.43305 83.842661,262.42289 C 49.067694,320.15218 58.794716,466.88544 53.538085,583.6514 l 177.786845,6.06092 c -13.74134,-96.9634 -34.94572,-198.00116 -24.24366,-303.04577 -4.96225,-20.5113 -25.67903,-22.11716 -43.43656,-27.27412 5.40642,24.84525 2.33372,38.78876 -11.11168,39.39595 -40.22431,5.35833 -62.730227,-3.06431 -54.548233,-35.35533 z"
       id="path5829"
       inkscape:connector-curvature="0"
       sodipodi:nodetypes="cccccccc" />
    <path
       style="fill:none;stroke:#000000;stroke-width:1px;stroke-linecap:butt;stroke-linejoin:miter;stroke-opacity:1"
       d="m 83.842661,260.40259 c -12.730542,-1.64763 -31.401692,5.44501 -41.416254,18.10152 -3.381944,88.55882 -25.60909,171.8098 -10.101526,257.67012 L 55.55839,543.2453 C 58.895364,454.02271 50.351312,311.95945 83.842661,260.40259 z"
       id="path5831"
       inkscape:connector-curvature="0"
       sodipodi:nodetypes="ccccc" />
    <path
       style="fill:none;stroke:#000000;stroke-width:1px;stroke-linecap:butt;stroke-linejoin:miter;stroke-opacity:1"
       d="m 217.1828,281.61579 c -27.63316,-10.45498 -31.43423,-3.0359 -38.3858,2.02031 -13.05995,90.79345 -6.06201,185.59847 -7.07107,278.8021 10.27587,10.315 36.57088,6.21278 59.599,5.05076 -4.71405,-95.29105 -12.30691,-187.70329 -14.14213,-285.87317 z"
       id="path5833"
       inkscape:connector-curvature="0"
       sodipodi:nodetypes="ccccc" />
    <path
       style="fill:#ffffff;fill-opacity:1;stroke:#000000;stroke-width:2.5;stroke-linecap:butt;stroke-linejoin:miter;stroke-miterlimit:4;stroke-opacity:1;stroke-dasharray:none"
       d="m 275.86298,135.09246 c 1.7653,-29.13758 25.58556,-43.234998 62.16499,-46.931488 40.90716,-5.78792 55.29474,3.29178 69.29698,21.718278 7.40707,15.63293 4.22767,39.45809 -4.19067,59.90836 -7.98539,19.39851 -27.49102,49.36927 -27.142,51.46097"
       id="path3860"
       inkscape:connector-curvature="0"
       sodipodi:nodetypes="cccsc" />
    <path
       style="fill:#dedede;fill-opacity:1;stroke:#000000;stroke-width:2.5;stroke-linecap:butt;stroke-linejoin:miter;stroke-miterlimit:4;stroke-opacity:1;stroke-dasharray:none"
       d="m 298.82318,250.26523 c -7.98303,-16.76609 -1.85415,-17.38614 -9.87039,-36.03237 -6.54589,0.0832 -14.56782,2.10556 -12.68367,-9.6902 1.54171,-9.65192 4.64932,-25.44789 4.04565,-31.4298 -5.42744,-18.04717 -4.20956,-34.06716 -1.9106,-39.58814 22.609,-18.22796 29.65233,-2.92034 52.26133,-1.07223 16.88801,22.46893 14.0726,36.24117 21.35513,46.66037 15.17328,3.95135 28.99086,-0.13502 33.38888,4.48257 9.78223,10.27061 -2.5777,24.73696 -10.41456,37.3832 -9.42174,-1.19606 -33.498,25.11886 -45.83485,26.37694 -16.73895,5.98107 -21.18462,5.87361 -30.33692,2.90966 z"
       id="path3850"
       inkscape:connector-curvature="0"
       sodipodi:nodetypes="ccsccccsccc" />
    <path
       style="fill:#ffffff;fill-opacity:1;stroke:#000000;stroke-width:1.25;stroke-linecap:butt;stroke-linejoin:miter;stroke-miterlimit:4;stroke-opacity:1;stroke-dasharray:none"
       d="m 357.34504,189.57585 c -3.73051,-5.40834 5.38413,-23.26472 17.31092,-17.24372 11.9268,6.021 -1.03717,24.24881 -3.00849,35.7553 -5.14967,2.99339 -7.46065,1.37997 -8.62068,-2.04591 -0.11696,-8.68917 -2.6685,-8.57832 -5.68175,-16.46567 z"
       id="path4444"
       inkscape:connector-curvature="0"
       sodipodi:nodetypes="ccccc" />
    <path
       style="fill:none;stroke:#000000;stroke-width:1.25;stroke-linecap:butt;stroke-linejoin:miter;stroke-miterlimit:4;stroke-opacity:1;stroke-dasharray:none"
       d="m 364.42691,183.79502 c 4.45491,-1.20186 6.19321,2.74382 6.50013,9.40166 -4.20215,8.26525 -6.10071,5.03909 -8.76516,5.63307"
       id="path4446"
       inkscape:connector-curvature="0"
       sodipodi:nodetypes="ccc" />
    <path
       style="fill:none;stroke:#000000;stroke-width:1.25;stroke-linecap:butt;stroke-linejoin:miter;stroke-miterlimit:4;stroke-opacity:1;stroke-dasharray:none"
       d="m 366.1217,194.0995 c -2.23386,-2.19722 -1.98696,-6.33517 -1.92935,-10.32507 -0.35221,-2.89406 1.74175,-5.29978 6.6529,-7.14317 10.42227,19.46439 -1.12287,17.49875 -1.83421,26.10196"
       id="path4448"
       inkscape:connector-curvature="0"
       sodipodi:nodetypes="cccc" />
    <path
       style="fill:none;stroke:#000000;stroke-width:1.25;stroke-linecap:butt;stroke-linejoin:miter;stroke-miterlimit:4;stroke-opacity:1;stroke-dasharray:none"
       d="m 368.28212,195.06187 c -4.59525,-2.3984 -5.44256,-1.4467 -7.31939,-1.41523"
       id="path4450"
       inkscape:connector-curvature="0"
       sodipodi:nodetypes="cc" />
    <path
       style="fill:#000000;stroke:#000000;stroke-width:1px;stroke-linecap:butt;stroke-linejoin:miter;stroke-opacity:1;fill-opacity:1"
       d="m 390.71429,273.07647 8.57143,12.14285 -4.28572,0 z"
       id="path3820"
       inkscape:connector-curvature="0" />
    <path
       style="fill:#000000;fill-opacity:1;stroke:#000000;stroke-width:0.72133249px;stroke-linecap:butt;stroke-linejoin:miter;stroke-opacity:1"
       d="m 396.51921,915.29683 c -5.32412,35.37972 -8.52644,71.27466 -14.52969,106.13857 -0.11223,24.9045 9.98479,32.2875 11.43813,48.4325 -22.85993,-8.8589 -82.84976,3.964 -130.25195,3.0909 -7.99884,-0.9883 -9.74459,-23.3524 0.51526,-39.1577 15.50809,-8.1867 29.91927,-5.6117 44.31037,-5.1526 10.94598,-0.7785 16.0328,-3.1764 22.8765,-12.1586 10.02071,-31.80315 -1.60917,-58.6029 -0.64154,-101.25382 z"
       id="path3814"
       inkscape:connector-curvature="0"
       sodipodi:nodetypes="ccccccccc" />
    <path
       style="fill:#dedede;fill-opacity:1;stroke:#000000;stroke-width:1px;stroke-linecap:butt;stroke-linejoin:miter;stroke-opacity:1"
       d="m 710.64232,59.382227 59.09392,4.04061 c 0.25126,-32.01465 1.27222,-60.7580799 -1.01015,-103.54063 -19.29891,-5.82852 -40.26144,-17.85783 -52.52793,2.52538 -3.36718,4.71405 -9.41519,68.34557 -5.55584,98.99495"
       id="path5856"
       inkscape:connector-curvature="0"
       sodipodi:nodetypes="ccccc" />
    <path
       style="fill:#161616;fill-opacity:1;stroke:#000000;stroke-width:2;stroke-linecap:butt;stroke-linejoin:miter;stroke-miterlimit:4;stroke-opacity:1;stroke-dasharray:none"
       d="m 327.70785,289.69701 -28.78935,71.21576 c 9.94978,-5.86795 21.69796,-8.25005 31.84011,-14.14214 4.15262,-17.99063 -1.07313,-37.85694 -3.05076,-57.07362 z"
       id="path5858"
       inkscape:connector-curvature="0"
       sodipodi:nodetypes="cccc" />
  </g>
</svg>
